<svg xmlns="http://www.w3.org/2000/svg" xmlns:xlink="http://www.w3.org/1999/xlink" viewBox="0 0 915.73 893.21"><defs><style>.cls-1,.cls-10,.cls-109,.cls-11,.cls-110,.cls-111,.cls-112,.cls-113,.cls-116,.cls-117,.cls-118,.cls-119,.cls-12,.cls-120,.cls-121,.cls-122,.cls-123,.cls-124,.cls-125,.cls-126,.cls-13,.cls-14,.cls-15,.cls-16,.cls-17,.cls-18,.cls-19,.cls-20,.cls-21,.cls-22,.cls-23,.cls-24,.cls-25,.cls-26,.cls-27,.cls-28,.cls-29,.cls-30,.cls-31,.cls-32,.cls-33,.cls-34,.cls-35,.cls-36,.cls-37,.cls-38,.cls-39,.cls-40,.cls-41,.cls-42,.cls-43,.cls-44,.cls-45,.cls-7,.cls-8,.cls-9{fill:none;}.cls-2{isolation:isolate;}.cls-3{fill:#eee;}.cls-4{fill:#32315a;}.cls-5{fill:url(#Degradado_sin_nombre_141);}.cls-6{clip-path:url(#clip-path);}.cls-10,.cls-109,.cls-11,.cls-110,.cls-111,.cls-112,.cls-113,.cls-116,.cls-117,.cls-118,.cls-119,.cls-12,.cls-120,.cls-121,.cls-122,.cls-123,.cls-124,.cls-125,.cls-126,.cls-13,.cls-14,.cls-15,.cls-16,.cls-17,.cls-18,.cls-19,.cls-20,.cls-21,.cls-22,.cls-23,.cls-24,.cls-25,.cls-26,.cls-27,.cls-28,.cls-29,.cls-30,.cls-31,.cls-32,.cls-33,.cls-34,.cls-35,.cls-36,.cls-37,.cls-38,.cls-39,.cls-40,.cls-41,.cls-42,.cls-43,.cls-44,.cls-45,.cls-7,.cls-8,.cls-9{stroke-linecap:round;stroke-linejoin:round;}.cls-10,.cls-11,.cls-12,.cls-13,.cls-14,.cls-15,.cls-16,.cls-17,.cls-18,.cls-19,.cls-20,.cls-21,.cls-22,.cls-23,.cls-24,.cls-25,.cls-26,.cls-27,.cls-28,.cls-29,.cls-30,.cls-31,.cls-32,.cls-33,.cls-34,.cls-35,.cls-36,.cls-37,.cls-38,.cls-39,.cls-40,.cls-41,.cls-42,.cls-43,.cls-44,.cls-45,.cls-7,.cls-8,.cls-9{stroke-width:0.76px;}.cls-7{stroke:url(#Degradado_sin_nombre_140);}.cls-8{stroke:url(#Degradado_sin_nombre_140-2);}.cls-9{stroke:url(#Degradado_sin_nombre_140-3);}.cls-10{stroke:url(#Degradado_sin_nombre_140-4);}.cls-11{stroke:url(#Degradado_sin_nombre_140-5);}.cls-12{stroke:url(#Degradado_sin_nombre_140-6);}.cls-13{stroke:url(#Degradado_sin_nombre_140-7);}.cls-14{stroke:url(#Degradado_sin_nombre_140-8);}.cls-15{stroke:url(#Degradado_sin_nombre_140-9);}.cls-16{stroke:url(#Degradado_sin_nombre_140-10);}.cls-17{stroke:url(#Degradado_sin_nombre_140-11);}.cls-18{stroke:url(#Degradado_sin_nombre_140-12);}.cls-19{stroke:url(#Degradado_sin_nombre_140-13);}.cls-20{stroke:url(#Degradado_sin_nombre_140-14);}.cls-21{stroke:url(#Degradado_sin_nombre_140-15);}.cls-22{stroke:url(#Degradado_sin_nombre_140-16);}.cls-23{stroke:url(#Degradado_sin_nombre_140-17);}.cls-24{stroke:url(#Degradado_sin_nombre_140-18);}.cls-25{stroke:url(#Degradado_sin_nombre_140-19);}.cls-26{stroke:url(#Degradado_sin_nombre_140-20);}.cls-27{stroke:url(#Degradado_sin_nombre_140-21);}.cls-28{stroke:url(#Degradado_sin_nombre_140-22);}.cls-29{stroke:url(#Degradado_sin_nombre_140-23);}.cls-30{stroke:url(#Degradado_sin_nombre_140-24);}.cls-31{stroke:url(#Degradado_sin_nombre_140-25);}.cls-32{stroke:url(#Degradado_sin_nombre_140-26);}.cls-33{stroke:url(#Degradado_sin_nombre_140-27);}.cls-34{stroke:url(#Degradado_sin_nombre_140-28);}.cls-35{stroke:url(#Degradado_sin_nombre_140-29);}.cls-36{stroke:url(#Degradado_sin_nombre_140-30);}.cls-37{stroke:url(#Degradado_sin_nombre_140-31);}.cls-38{stroke:url(#Degradado_sin_nombre_140-32);}.cls-39{stroke:url(#Degradado_sin_nombre_140-33);}.cls-40{stroke:url(#Degradado_sin_nombre_140-34);}.cls-41{stroke:url(#Degradado_sin_nombre_140-35);}.cls-42{stroke:url(#Degradado_sin_nombre_140-36);}.cls-43{stroke:url(#Degradado_sin_nombre_140-37);}.cls-44{stroke:url(#Degradado_sin_nombre_140-38);}.cls-45{stroke:url(#Degradado_sin_nombre_140-39);}.cls-115,.cls-46{opacity:0.15;}.cls-46{mix-blend-mode:hard-light;}.cls-114,.cls-115,.cls-47,.cls-48,.cls-49,.cls-50,.cls-51,.cls-52{fill:#66b32e;}.cls-47{opacity:0.3;}.cls-48{opacity:0.6;}.cls-50{opacity:0.5;}.cls-51{opacity:0.35;}.cls-52{opacity:0.25;}.cls-53{fill:url(#Degradado_sin_nombre_138);}.cls-54{fill:url(#Degradado_sin_nombre_138-2);}.cls-55{fill:url(#Degradado_sin_nombre_138-3);}.cls-56{fill:url(#Degradado_sin_nombre_138-4);}.cls-57{fill:url(#Degradado_sin_nombre_138-5);}.cls-58{fill:url(#Degradado_sin_nombre_138-6);}.cls-59{fill:url(#Degradado_sin_nombre_138-7);}.cls-60{fill:url(#Degradado_sin_nombre_138-8);}.cls-61{fill:url(#Degradado_sin_nombre_138-9);}.cls-62{fill:url(#Degradado_sin_nombre_138-10);}.cls-63{fill:url(#Degradado_sin_nombre_138-11);}.cls-64{fill:url(#Degradado_sin_nombre_138-12);}.cls-65{fill:url(#Degradado_sin_nombre_138-13);}.cls-66{fill:url(#Degradado_sin_nombre_138-14);}.cls-67{fill:url(#Degradado_sin_nombre_138-15);}.cls-68{fill:url(#Degradado_sin_nombre_138-16);}.cls-69{fill:url(#Degradado_sin_nombre_138-17);}.cls-70{fill:url(#Degradado_sin_nombre_138-18);}.cls-71{fill:url(#Degradado_sin_nombre_138-19);}.cls-72{fill:url(#Degradado_sin_nombre_138-20);}.cls-73{fill:url(#Degradado_sin_nombre_138-21);}.cls-74{fill:url(#Degradado_sin_nombre_138-22);}.cls-75{fill:url(#Degradado_sin_nombre_138-23);}.cls-76{fill:url(#Degradado_sin_nombre_138-24);}.cls-77{fill:url(#Degradado_sin_nombre_138-25);}.cls-78{fill:url(#Degradado_sin_nombre_138-26);}.cls-79{fill:url(#Degradado_sin_nombre_138-27);}.cls-80{fill:url(#Degradado_sin_nombre_138-28);}.cls-81{fill:url(#Degradado_sin_nombre_138-29);}.cls-82{fill:url(#Degradado_sin_nombre_138-30);}.cls-83{fill:url(#Degradado_sin_nombre_138-31);}.cls-84{fill:url(#Degradado_sin_nombre_138-32);}.cls-85{fill:url(#Degradado_sin_nombre_138-33);}.cls-86{fill:url(#Degradado_sin_nombre_138-34);}.cls-87{fill:url(#Degradado_sin_nombre_138-35);}.cls-88{fill:url(#Degradado_sin_nombre_138-36);}.cls-89{fill:url(#Degradado_sin_nombre_138-37);}.cls-90{fill:url(#Degradado_sin_nombre_138-38);}.cls-91{fill:url(#Degradado_sin_nombre_138-39);}.cls-92{fill:url(#Degradado_sin_nombre_138-40);}.cls-93{fill:url(#Degradado_sin_nombre_138-41);}.cls-94{fill:url(#Degradado_sin_nombre_138-42);}.cls-95{fill:url(#Degradado_sin_nombre_138-43);}.cls-96{fill:url(#Degradado_sin_nombre_138-44);}.cls-97{fill:url(#Degradado_sin_nombre_138-45);}.cls-98{fill:url(#Degradado_sin_nombre_138-46);}.cls-99{fill:url(#Degradado_sin_nombre_138-47);}.cls-100{fill:url(#Degradado_sin_nombre_138-48);}.cls-101{fill:url(#Degradado_sin_nombre_138-49);}.cls-102{fill:url(#Degradado_sin_nombre_138-50);}.cls-103{fill:url(#Degradado_sin_nombre_138-51);}.cls-104{fill:url(#Degradado_sin_nombre_138-52);}.cls-105{fill:url(#Degradado_sin_nombre_138-53);}.cls-106{fill:url(#Degradado_sin_nombre_138-54);}.cls-107{fill:url(#Degradado_sin_nombre_138-55);}.cls-108{fill:url(#Degradado_sin_nombre_138-56);}.cls-109,.cls-110,.cls-111,.cls-112,.cls-113,.cls-116,.cls-117,.cls-118,.cls-119,.cls-120,.cls-121,.cls-122,.cls-123,.cls-124,.cls-125,.cls-126{stroke-width:0.47px;}.cls-109{stroke:url(#Degradado_sin_nombre_139);}.cls-110{stroke:url(#Degradado_sin_nombre_139-2);}.cls-111{stroke:url(#Degradado_sin_nombre_139-3);}.cls-112{stroke:url(#Degradado_sin_nombre_139-4);}.cls-113{stroke:url(#Degradado_sin_nombre_139-5);}.cls-114,.cls-144{opacity:0.1;}.cls-116{stroke:url(#Degradado_sin_nombre_139-6);}.cls-117{stroke:url(#Degradado_sin_nombre_139-7);}.cls-118{stroke:url(#Degradado_sin_nombre_139-8);}.cls-119{stroke:url(#Degradado_sin_nombre_139-9);}.cls-120{stroke:url(#Degradado_sin_nombre_139-10);}.cls-121{stroke:url(#Degradado_sin_nombre_139-11);}.cls-122{stroke:url(#Degradado_sin_nombre_139-12);}.cls-123{stroke:url(#Degradado_sin_nombre_139-13);}.cls-124{stroke:url(#Degradado_sin_nombre_139-14);}.cls-125{stroke:url(#Degradado_sin_nombre_139-15);}.cls-126{stroke:url(#Degradado_sin_nombre_139-16);}.cls-127{fill:url(#Degradado_sin_nombre_138-57);}.cls-128{fill:url(#Degradado_sin_nombre_138-58);}.cls-129{font-size:22.12px;}.cls-129,.cls-135,.cls-136,.cls-140{font-family:LeagueSpartan-Bold, League Spartan;font-weight:700;}.cls-130{letter-spacing:0em;}.cls-131{letter-spacing:0em;}.cls-132{letter-spacing:0em;}.cls-133{letter-spacing:-0.01em;}.cls-134{letter-spacing:0em;}.cls-135{font-size:23.64px;}.cls-136{font-size:9.33px;}.cls-137{letter-spacing:-0.02em;}.cls-138{letter-spacing:-0.09em;}.cls-139{letter-spacing:0em;}.cls-140{font-size:11.83px;}.cls-141{letter-spacing:-0.07em;}.cls-142{letter-spacing:0em;}.cls-143{fill:#eeeded;}.cls-144{fill:#439334;}.cls-145{fill:#0a2432;}.cls-146{fill:#023642;}.cls-147{fill:#0c7236;}.cls-148{font-size:22px;font-family:MyriadPro-Regular, Myriad Pro;}</style><linearGradient id="Degradado_sin_nombre_141" x1="241.87" y1="183.94" x2="757.37" y2="699.44" gradientUnits="userSpaceOnUse"><stop offset="0" stop-color="#0d1929"/><stop offset="0.2" stop-color="#072937"/><stop offset="0.43" stop-color="#023541"/><stop offset="0.66" stop-color="#013944"/><stop offset="1" stop-color="#017534"/></linearGradient><clipPath id="clip-path" transform="translate(-144.42)"><rect class="cls-1" y="160.82" width="879.66" height="561.19"/></clipPath><linearGradient id="Degradado_sin_nombre_140" x1="323.68" y1="631.3" x2="515.18" y2="822.8" gradientTransform="translate(298.43 -256.74) rotate(10.01)" gradientUnits="userSpaceOnUse"><stop offset="0" stop-color="#b1d28a"/><stop offset="0.38" stop-color="#66b32e"/><stop offset="0.42" stop-color="#66b32e" stop-opacity="0.95"/><stop offset="0.56" stop-color="#66b32e" stop-opacity="0.8"/><stop offset="0.7" stop-color="#66b32e" stop-opacity="0.69"/><stop offset="0.85" stop-color="#66b32e" stop-opacity="0.62"/><stop offset="1" stop-color="#66b32e" stop-opacity="0.6"/></linearGradient><linearGradient id="Degradado_sin_nombre_140-2" x1="339.49" y1="637.97" x2="507.27" y2="805.75" xlink:href="#Degradado_sin_nombre_140"/><linearGradient id="Degradado_sin_nombre_140-3" x1="342.17" y1="635.29" x2="490.48" y2="783.6" xlink:href="#Degradado_sin_nombre_140"/><linearGradient id="Degradado_sin_nombre_140-4" x1="338.92" y1="644.92" x2="549.64" y2="855.64" xlink:href="#Degradado_sin_nombre_140"/><linearGradient id="Degradado_sin_nombre_140-5" x1="430.86" y1="714.76" x2="455.6" y2="739.5" xlink:href="#Degradado_sin_nombre_140"/><linearGradient id="Degradado_sin_nombre_140-6" x1="475.44" y1="697.95" x2="568.35" y2="790.86" xlink:href="#Degradado_sin_nombre_140"/><linearGradient id="Degradado_sin_nombre_140-7" x1="332.49" y1="711.84" x2="364.5" y2="743.84" xlink:href="#Degradado_sin_nombre_140"/><linearGradient id="Degradado_sin_nombre_140-8" x1="322.93" y1="732.32" x2="340.54" y2="749.93" xlink:href="#Degradado_sin_nombre_140"/><linearGradient id="Degradado_sin_nombre_140-9" x1="353.47" y1="713.98" x2="482.91" y2="843.42" xlink:href="#Degradado_sin_nombre_140"/><linearGradient id="Degradado_sin_nombre_140-10" x1="301.93" y1="721.06" x2="349.2" y2="768.33" xlink:href="#Degradado_sin_nombre_140"/><linearGradient id="Degradado_sin_nombre_140-11" x1="289.72" y1="796.33" x2="300.53" y2="807.14" xlink:href="#Degradado_sin_nombre_140"/><linearGradient id="Degradado_sin_nombre_140-12" x1="396.76" y1="625.88" x2="488.04" y2="717.15" xlink:href="#Degradado_sin_nombre_140"/><linearGradient id="Degradado_sin_nombre_140-13" x1="347.05" y1="744.06" x2="375.2" y2="772.22" xlink:href="#Degradado_sin_nombre_140"/><linearGradient id="Degradado_sin_nombre_140-14" x1="403.87" y1="771.75" x2="406.37" y2="774.26" xlink:href="#Degradado_sin_nombre_140"/><linearGradient id="Degradado_sin_nombre_140-15" x1="294.84" y1="767.93" x2="325.4" y2="798.48" xlink:href="#Degradado_sin_nombre_140"/><linearGradient id="Degradado_sin_nombre_140-16" x1="332.4" y1="784.04" x2="373.91" y2="825.55" xlink:href="#Degradado_sin_nombre_140"/><linearGradient id="Degradado_sin_nombre_140-17" x1="320.93" y1="806.7" x2="349.9" y2="835.68" xlink:href="#Degradado_sin_nombre_140"/><linearGradient id="Degradado_sin_nombre_140-18" x1="313.58" y1="821.13" x2="351.82" y2="859.37" xlink:href="#Degradado_sin_nombre_140"/><linearGradient id="Degradado_sin_nombre_140-19" x1="364.44" y1="812.23" x2="453.84" y2="901.62" xlink:href="#Degradado_sin_nombre_140"/><linearGradient id="Degradado_sin_nombre_140-20" x1="339.73" y1="857.56" x2="397.6" y2="915.42" xlink:href="#Degradado_sin_nombre_140"/><linearGradient id="Degradado_sin_nombre_140-21" x1="350.71" y1="829.29" x2="421.15" y2="899.73" xlink:href="#Degradado_sin_nombre_140"/><linearGradient id="Degradado_sin_nombre_140-22" x1="283.82" y1="669.73" x2="437.16" y2="823.08" xlink:href="#Degradado_sin_nombre_140"/><linearGradient id="Degradado_sin_nombre_140-23" x1="401.46" y1="857.7" x2="422.44" y2="878.69" xlink:href="#Degradado_sin_nombre_140"/><linearGradient id="Degradado_sin_nombre_140-24" x1="325.26" y1="738.82" x2="381.57" y2="795.13" xlink:href="#Degradado_sin_nombre_140"/><linearGradient id="Degradado_sin_nombre_140-25" x1="452.84" y1="757.38" x2="476.52" y2="781.06" xlink:href="#Degradado_sin_nombre_140"/><linearGradient id="Degradado_sin_nombre_140-26" x1="461.95" y1="734.97" x2="492.28" y2="765.3" xlink:href="#Degradado_sin_nombre_140"/><linearGradient id="Degradado_sin_nombre_140-27" x1="502.1" y1="707.97" x2="530.65" y2="736.52" xlink:href="#Degradado_sin_nombre_140"/><linearGradient id="Degradado_sin_nombre_140-28" x1="538.9" y1="774.98" x2="616.46" y2="852.54" xlink:href="#Degradado_sin_nombre_140"/><linearGradient id="Degradado_sin_nombre_140-29" x1="349.02" y1="676.04" x2="483.77" y2="810.79" xlink:href="#Degradado_sin_nombre_140"/><linearGradient id="Degradado_sin_nombre_140-30" x1="455.96" y1="671.01" x2="507.52" y2="722.57" xlink:href="#Degradado_sin_nombre_140"/><linearGradient id="Degradado_sin_nombre_140-31" x1="330.31" y1="623.25" x2="542.72" y2="835.66" xlink:href="#Degradado_sin_nombre_140"/><linearGradient id="Degradado_sin_nombre_140-32" x1="330" y1="624.98" x2="450.06" y2="745.04" xlink:href="#Degradado_sin_nombre_140"/><linearGradient id="Degradado_sin_nombre_140-33" x1="396.24" y1="557.31" x2="434.34" y2="595.4" xlink:href="#Degradado_sin_nombre_140"/><linearGradient id="Degradado_sin_nombre_140-34" x1="480.42" y1="575.53" x2="490.63" y2="585.74" xlink:href="#Degradado_sin_nombre_140"/><linearGradient id="Degradado_sin_nombre_140-35" x1="300.41" y1="754.84" x2="309.6" y2="764.03" xlink:href="#Degradado_sin_nombre_140"/><linearGradient id="Degradado_sin_nombre_140-36" x1="313.49" y1="755.45" x2="499.24" y2="941.2" xlink:href="#Degradado_sin_nombre_140"/><linearGradient id="Degradado_sin_nombre_140-37" x1="319.84" y1="787.69" x2="324.65" y2="792.51" xlink:href="#Degradado_sin_nombre_140"/><linearGradient id="Degradado_sin_nombre_140-38" x1="384.89" y1="738.66" x2="473.3" y2="827.07" xlink:href="#Degradado_sin_nombre_140"/><linearGradient id="Degradado_sin_nombre_140-39" x1="330.36" y1="815.63" x2="346.97" y2="832.23" xlink:href="#Degradado_sin_nombre_140"/><radialGradient id="Degradado_sin_nombre_138" cx="398.94" cy="720.67" r="6.3" gradientTransform="matrix(0.99, 0.17, -0.18, 0.98, 440.68, -256.74)" gradientUnits="userSpaceOnUse"><stop offset="0.08" stop-color="#fff"/><stop offset="0.11" stop-color="#f9fcf7" stop-opacity="0.98"/><stop offset="0.15" stop-color="#e9f4e0" stop-opacity="0.94"/><stop offset="0.2" stop-color="#cee7bc" stop-opacity="0.87"/><stop offset="0.26" stop-color="#a9d489" stop-opacity="0.77"/><stop offset="0.33" stop-color="#7abd49" stop-opacity="0.65"/><stop offset="0.35" stop-color="#66b32e" stop-opacity="0.6"/><stop offset="0.38" stop-color="#66b32e" stop-opacity="0.55"/><stop offset="0.5" stop-color="#66b32e" stop-opacity="0.35"/><stop offset="0.63" stop-color="#66b32e" stop-opacity="0.2"/><stop offset="0.75" stop-color="#66b32e" stop-opacity="0.09"/><stop offset="0.87" stop-color="#66b32e" stop-opacity="0.02"/><stop offset="1" stop-color="#66b32e" stop-opacity="0"/></radialGradient><radialGradient id="Degradado_sin_nombre_138-2" cx="347.1" cy="630.41" r="3.78" xlink:href="#Degradado_sin_nombre_138"/><radialGradient id="Degradado_sin_nombre_138-3" cx="327.4" cy="674.81" r="3.78" xlink:href="#Degradado_sin_nombre_138"/><radialGradient id="Degradado_sin_nombre_138-4" cx="341.17" cy="726.45" r="3.78" xlink:href="#Degradado_sin_nombre_138"/><radialGradient id="Degradado_sin_nombre_138-5" cx="374.77" cy="849.16" r="3.78" xlink:href="#Degradado_sin_nombre_138"/><radialGradient id="Degradado_sin_nombre_138-6" cx="416.09" cy="884.76" r="3.78" xlink:href="#Degradado_sin_nombre_138"/><radialGradient id="Degradado_sin_nombre_138-7" cx="395.11" cy="856.29" r="3.78" xlink:href="#Degradado_sin_nombre_138"/><radialGradient id="Degradado_sin_nombre_138-8" cx="316.95" cy="851.14" r="3.78" xlink:href="#Degradado_sin_nombre_138"/><radialGradient id="Degradado_sin_nombre_138-9" cx="424.19" cy="755.47" r="3.78" gradientTransform="matrix(0.99, 0.17, -0.18, 0.98, 296.26, -256.74)" xlink:href="#Degradado_sin_nombre_138"/><radialGradient id="Degradado_sin_nombre_138-10" cx="482.35" cy="687.3" r="3.78" xlink:href="#Degradado_sin_nombre_138"/><radialGradient id="Degradado_sin_nombre_138-11" cx="525.55" cy="613.57" r="3.78" xlink:href="#Degradado_sin_nombre_138"/><radialGradient id="Degradado_sin_nombre_138-12" cx="482.52" cy="644.17" r="3.78" xlink:href="#Degradado_sin_nombre_138"/><radialGradient id="Degradado_sin_nombre_138-13" cx="400.45" cy="622.97" r="3.78" xlink:href="#Degradado_sin_nombre_138"/><radialGradient id="Degradado_sin_nombre_138-14" cx="385.23" cy="680.69" r="3.78" xlink:href="#Degradado_sin_nombre_138"/><radialGradient id="Degradado_sin_nombre_138-15" cx="475.6" cy="861" r="3.78" xlink:href="#Degradado_sin_nombre_138"/><radialGradient id="Degradado_sin_nombre_138-16" cx="446.94" cy="908.1" r="3.78" xlink:href="#Degradado_sin_nombre_138"/><radialGradient id="Degradado_sin_nombre_138-17" cx="474.46" cy="812.81" r="3.78" xlink:href="#Degradado_sin_nombre_138"/><radialGradient id="Degradado_sin_nombre_138-18" cx="535.13" cy="649.96" r="3.78" xlink:href="#Degradado_sin_nombre_138"/><radialGradient id="Degradado_sin_nombre_138-19" cx="540.03" cy="688.79" r="3.78" xlink:href="#Degradado_sin_nombre_138"/><radialGradient id="Degradado_sin_nombre_138-20" cx="539.33" cy="759.54" r="3.78" xlink:href="#Degradado_sin_nombre_138"/><radialGradient id="Degradado_sin_nombre_138-21" cx="437.09" cy="882.84" r="3.78" xlink:href="#Degradado_sin_nombre_138"/><radialGradient id="Degradado_sin_nombre_138-22" cx="385.73" cy="595.53" r="3.78" xlink:href="#Degradado_sin_nombre_138"/><radialGradient id="Degradado_sin_nombre_138-23" cx="437.96" cy="554.65" r="3.78" xlink:href="#Degradado_sin_nombre_138"/><radialGradient id="Degradado_sin_nombre_138-24" cx="348.09" cy="717.52" r="3.78" xlink:href="#Degradado_sin_nombre_138"/><radialGradient id="Degradado_sin_nombre_138-25" cx="321.05" cy="744.24" r="3.78" xlink:href="#Degradado_sin_nombre_138"/><radialGradient id="Degradado_sin_nombre_138-26" cx="431.15" cy="714.72" r="6.3" xlink:href="#Degradado_sin_nombre_138"/><radialGradient id="Degradado_sin_nombre_138-27" cx="322.1" cy="825" r="6.3" xlink:href="#Degradado_sin_nombre_138"/><radialGradient id="Degradado_sin_nombre_138-28" cx="347.04" cy="834.96" r="6.3" xlink:href="#Degradado_sin_nombre_138"/><radialGradient id="Degradado_sin_nombre_138-29" cx="333.19" cy="865.38" r="3.78" xlink:href="#Degradado_sin_nombre_138"/><radialGradient id="Degradado_sin_nombre_138-30" cx="361.47" cy="871.68" r="6.3" xlink:href="#Degradado_sin_nombre_138"/><radialGradient id="Degradado_sin_nombre_138-31" cx="374.42" cy="885.57" r="6.3" gradientTransform="matrix(0.99, 0.17, -0.18, 0.98, 296.26, -256.74)" xlink:href="#Degradado_sin_nombre_138"/><radialGradient id="Degradado_sin_nombre_138-32" cx="339.22" cy="906.69" r="6.3" gradientTransform="matrix(0.99, 0.17, -0.18, 0.98, 296.26, -256.74)" xlink:href="#Degradado_sin_nombre_138"/><radialGradient id="Degradado_sin_nombre_138-33" cx="410.72" cy="829.32" r="6.3" xlink:href="#Degradado_sin_nombre_138"/><radialGradient id="Degradado_sin_nombre_138-34" cx="440.94" cy="842.16" r="10.64" xlink:href="#Degradado_sin_nombre_138"/><radialGradient id="Degradado_sin_nombre_138-35" cx="504.71" cy="819.92" r="10.64" xlink:href="#Degradado_sin_nombre_138"/><radialGradient id="Degradado_sin_nombre_138-36" cx="317.36" cy="773.79" r="6.3" xlink:href="#Degradado_sin_nombre_138"/><radialGradient id="Degradado_sin_nombre_138-37" cx="315.61" cy="757.84" r="10.64" xlink:href="#Degradado_sin_nombre_138"/><radialGradient id="Degradado_sin_nombre_138-38" cx="360.36" cy="735.78" r="6.3" xlink:href="#Degradado_sin_nombre_138"/><radialGradient id="Degradado_sin_nombre_138-39" cx="338.02" cy="753.7" r="6.3" xlink:href="#Degradado_sin_nombre_138"/><radialGradient id="Degradado_sin_nombre_138-40" cx="375.14" cy="578.88" r="3.78" xlink:href="#Degradado_sin_nombre_138"/><radialGradient id="Degradado_sin_nombre_138-41" cx="335.77" cy="620.54" r="6.3" xlink:href="#Degradado_sin_nombre_138"/><radialGradient id="Degradado_sin_nombre_138-42" cx="315.61" cy="669.29" r="6.3" xlink:href="#Degradado_sin_nombre_138"/><radialGradient id="Degradado_sin_nombre_138-43" cx="352.37" cy="686.53" r="6.3" xlink:href="#Degradado_sin_nombre_138"/><radialGradient id="Degradado_sin_nombre_138-44" cx="470.01" cy="605.14" r="6.3" xlink:href="#Degradado_sin_nombre_138"/><radialGradient id="Degradado_sin_nombre_138-45" cx="454.96" cy="573.98" r="10.64" xlink:href="#Degradado_sin_nombre_138"/><radialGradient id="Degradado_sin_nombre_138-46" cx="470.01" cy="715.42" r="6.3" xlink:href="#Degradado_sin_nombre_138"/><radialGradient id="Degradado_sin_nombre_138-47" cx="493.35" cy="738.65" r="10.64" gradientTransform="matrix(0.99, 0.17, -0.18, 0.98, 296.26, -256.74)" xlink:href="#Degradado_sin_nombre_138"/><radialGradient id="Degradado_sin_nombre_138-48" cx="454.95" cy="756.73" r="6.3" xlink:href="#Degradado_sin_nombre_138"/><radialGradient id="Degradado_sin_nombre_138-49" cx="477.3" cy="779.49" r="3.78" xlink:href="#Degradado_sin_nombre_138"/><radialGradient id="Degradado_sin_nombre_138-50" cx="496.39" cy="797" r="6.3" gradientTransform="matrix(0.99, 0.17, -0.18, 0.98, 296.26, -256.74)" xlink:href="#Degradado_sin_nombre_138"/><radialGradient id="Degradado_sin_nombre_138-51" cx="421.44" cy="793.13" r="3.78" xlink:href="#Degradado_sin_nombre_138"/><radialGradient id="Degradado_sin_nombre_138-52" cx="385.22" cy="791.04" r="6.3" xlink:href="#Degradado_sin_nombre_138"/><radialGradient id="Degradado_sin_nombre_138-53" cx="369.18" cy="655.55" r="3.78" xlink:href="#Degradado_sin_nombre_138"/><radialGradient id="Degradado_sin_nombre_138-54" cx="420.81" cy="661.9" r="10.64" xlink:href="#Degradado_sin_nombre_138"/><radialGradient id="Degradado_sin_nombre_138-55" cx="318.68" cy="726.45" r="6.3" xlink:href="#Degradado_sin_nombre_138"/><radialGradient id="Degradado_sin_nombre_138-56" cx="337.9" cy="790.69" r="6.3" xlink:href="#Degradado_sin_nombre_138"/><linearGradient id="Degradado_sin_nombre_139" x1="195.67" y1="925.08" x2="305.66" y2="925.08" gradientTransform="translate(298.43 -256.74) rotate(10.01)" gradientUnits="userSpaceOnUse"><stop offset="0" stop-color="#66b32e"/><stop offset="0.04" stop-color="#66b32e" stop-opacity="0.95"/><stop offset="0.23" stop-color="#66b32e" stop-opacity="0.75"/><stop offset="0.42" stop-color="#66b32e" stop-opacity="0.6"/><stop offset="0.61" stop-color="#66b32e" stop-opacity="0.49"/><stop offset="0.8" stop-color="#66b32e" stop-opacity="0.42"/><stop offset="1" stop-color="#66b32e" stop-opacity="0.4"/></linearGradient><linearGradient id="Degradado_sin_nombre_139-2" x1="2382.55" y1="535.17" x2="2527.39" y2="535.17" gradientTransform="translate(-1396.74 1928.02) rotate(-42.93)" xlink:href="#Degradado_sin_nombre_139"/><linearGradient id="Degradado_sin_nombre_139-3" x1="2603.06" y1="317.79" x2="2747.9" y2="317.79" gradientTransform="translate(-1396.74 1928.02) rotate(-42.93)" xlink:href="#Degradado_sin_nombre_139"/><linearGradient id="Degradado_sin_nombre_139-4" x1="92.45" y1="1362.8" x2="237.86" y2="1362.8" gradientTransform="matrix(0.88, 0.47, -0.47, 0.88, 1270.26, -578.18)" xlink:href="#Degradado_sin_nombre_139"/><linearGradient id="Degradado_sin_nombre_139-5" x1="-160.84" y1="1078.25" x2="-15.43" y2="1078.25" gradientTransform="matrix(0.88, 0.47, -0.47, 0.88, 1270.26, -578.18)" xlink:href="#Degradado_sin_nombre_139"/><linearGradient id="Degradado_sin_nombre_139-6" x1="244.16" y1="872.26" x2="264.14" y2="872.26" xlink:href="#Degradado_sin_nombre_139"/><linearGradient id="Degradado_sin_nombre_139-7" x1="235.43" y1="913.61" x2="247.8" y2="913.61" xlink:href="#Degradado_sin_nombre_139"/><linearGradient id="Degradado_sin_nombre_139-8" x1="166.38" y1="906.06" x2="231.51" y2="906.06" xlink:href="#Degradado_sin_nombre_139"/><linearGradient id="Degradado_sin_nombre_139-9" x1="300.92" y1="539.86" x2="412.14" y2="539.86" xlink:href="#Degradado_sin_nombre_139"/><linearGradient id="Degradado_sin_nombre_139-10" x1="275.03" y1="588.61" x2="340.22" y2="588.61" xlink:href="#Degradado_sin_nombre_139"/><linearGradient id="Degradado_sin_nombre_139-11" x1="285.14" y1="626.35" x2="305.49" y2="626.35" xlink:href="#Degradado_sin_nombre_139"/><linearGradient id="Degradado_sin_nombre_139-12" x1="251.83" y1="580.79" x2="264.94" y2="580.79" xlink:href="#Degradado_sin_nombre_139"/><linearGradient id="Degradado_sin_nombre_139-13" x1="464.15" y1="936.32" x2="575" y2="936.32" xlink:href="#Degradado_sin_nombre_139"/><linearGradient id="Degradado_sin_nombre_139-14" x1="516.11" y1="889.01" x2="574.08" y2="889.01" xlink:href="#Degradado_sin_nombre_139"/><linearGradient id="Degradado_sin_nombre_139-15" x1="479.4" y1="880.59" x2="500.12" y2="880.59" xlink:href="#Degradado_sin_nombre_139"/><linearGradient id="Degradado_sin_nombre_139-16" x1="515.09" y1="834.99" x2="528.21" y2="834.99" xlink:href="#Degradado_sin_nombre_139"/><radialGradient id="Degradado_sin_nombre_138-57" cx="286.32" cy="783.92" r="6.3" gradientTransform="matrix(0.99, 0.17, -0.18, 0.98, 296.26, -256.74)" xlink:href="#Degradado_sin_nombre_138"/><radialGradient id="Degradado_sin_nombre_138-58" cx="296.58" cy="771.78" r="6.3" xlink:href="#Degradado_sin_nombre_138"/></defs><g class="cls-2"><g id="Layer_2" data-name="Layer 2"><g id="Layer_1-2" data-name="Layer 1"><rect class="cls-3" x="375.36" width="534.23" height="756.01" transform="translate(1140.53 756.01) rotate(180)"/><rect class="cls-4" x="408.44" y="136.19" width="396.65" height="1.24" transform="translate(1069.11 273.61) rotate(180)"/><rect class="cls-5" x="264.62" y="161.19" width="470" height="561"/><g class="cls-6"><polyline class="cls-7" points="466.16 672.39 478.49 671.59 502.35 665.1 519.62 644.65 531.75 614.78 540.18 589.24 551.52 556.02 566.13 522.32 559.57 480.28 547.99 453.01 530.79 424.76 520.4 412.63 584.71 426.02 662.64 461.52 710.48 438.44 647.13 387.53 694.35 378.02 703.41 407.69 710.48 438.44 713.77 476.35 711.89 515.13 708.25 549.68 698.74 585 681.43 609.7 654.46 638.39 617.6 674.25 575.55 688.93 552.36 698.38"/><polyline class="cls-8" points="765.17 528.01 711.89 515.13 655.12 503.76 599.16 522.06 566.13 522.32 525.96 480.09 502.96 464.33 492.4 457.15 530.79 424.76 584.71 426.02 634.92 365.49 647.13 387.53 656.96 420.89 662.64 461.52 655.12 503.76 637.28 529.44 627.42 546.56 612.37 554.59 616.73 572.42 609.73 593.59 608.38 619.31 586.55 649.26 572.77 670.31 554.44 686.66 552.36 698.38 537.45 702.88"/><polyline class="cls-9" points="769.21 512.98 756.81 462.19 741.24 438.85 703.41 407.69 647.13 387.53 575.52 397.04 530.79 424.76 502.96 464.33 497.74 493.64 512.79 509.78 507.15 510.57 507.75 517.97 516.88 531.12 500.11 544.34 491.64 555.18 486.19 572.87 482.34 590.21 479.78 604.62 471.54 611.71 464.19 616.35 494.37 625.82 461.79 636.54 468.21 636.72 475.62 635.33 483.6 632.62 494.37 625.82 479.26 616.69 471.54 611.71 462.62 606.35"/><polyline class="cls-10" points="713.77 476.35 662.64 461.52 598.44 467.71 559.57 480.28 525.96 480.09 497.74 493.64 492.4 457.15 486.84 496.61 489.67 514.8 484.46 531.96 476.84 544.61 469.6 552.35 459.12 560.23 443.2 565.03 460.53 573.75 467.94 576.47 478.61 580.95 476.76 588.68 482.34 590.21 489.34 599.89 505.95 615.36 519.62 644.65 538.84 655.49 572.77 670.31 575.55 688.93 580.67 715.19 580.93 758.01"/><polyline class="cls-11" points="599.16 522.06 615.99 534.25 612.37 554.59"/><polyline class="cls-12" points="785.29 575.2 708.25 549.68 637.28 529.44 615.99 534.25 627.42 546.56 642.22 549.84 656.74 556.43 659.2 569.47 657.84 586.49 647.9 598.02 635.36 607.03 619.28 614"/><polyline class="cls-13" points="485.38 514.27 489.67 514.8 516.88 531.12 525.16 530.26 532.95 528.15 544.87 526.95"/><polyline class="cls-14" points="475.75 530.43 484.46 531.96 516.88 531.12"/><polyline class="cls-15" points="455.79 554.94 459.12 560.23 465.17 566.51 470.34 572.39 478.3 573.78 486.19 572.87 493.24 580.66 512.78 585.03 540.18 589.24 576.02 597.64 608.38 619.31 654.46 638.39 667.4 601.91 647.9 598.02 644.37 582.94 659.2 569.47 667.4 601.91 681.43 609.7 671.64 578.12"/><polyline class="cls-16" points="464.09 581.96 467.94 576.47 470.34 572.39 475.78 560.62 491.64 555.18 496.84 568.5 498.81 557.46 514.53 552.39 534.37 541.64 544.87 526.95 517.74 502.12 497.74 493.64 482.67 497.75"/><line class="cls-17" x1="443.48" y1="579.62" x2="455.98" y2="588.6"/><polyline class="cls-18" points="756.81 462.19 710.48 438.44 656.96 420.89 584.71 426.02 547.99 453.01 525.96 480.09 517.74 502.12 516.27 510.39 512.79 509.78 507.75 517.97 525.16 530.26 508.27 537.91 509.18 545.29 531.05 535.22 532.95 528.15 516.27 510.39"/><polyline class="cls-19" points="509.18 545.29 498.81 557.46 500.11 544.34 514.53 552.39 551.52 556.02"/><line class="cls-20" x1="540.18" y1="589.24" x2="585.9" y2="560.62"/><polyline class="cls-21" points="471.17 540.14 476.84 544.61 475.78 560.62 465.17 566.51 460.53 573.75 459.17 581.4 455.98 588.6 470.61 592.35"/><polyline class="cls-22" points="496.84 568.5 493.24 580.66 531.75 614.78 505.95 615.36"/><polyline class="cls-23" points="487.26 610.9 489.34 599.89 493.24 580.66 505.95 615.36 499.78 625.18 494.37 625.82 469.01 625.49 475.62 635.33"/><polyline class="cls-24" points="468.21 636.72 475.28 653.37 483.78 652.6 494.19 650.51 506.34 642.69 499.78 625.18 487.26 610.9 479.78 604.62 472.07 601.61"/><polyline class="cls-25" points="478.49 671.59 512.88 680.45 502.35 665.1 483.78 652.6 475.62 635.33 494.19 650.51 519.62 644.65 558.52 631.55 608.38 619.31 617.6 674.25 580.67 715.19"/><polyline class="cls-26" points="512.88 680.45 552.36 698.38 483.8 692.78 478.49 671.59 475.28 653.37"/><polyline class="cls-27" points="483.6 632.62 506.34 642.69 502.35 665.1 538.84 655.49 554.44 686.66 575.55 688.93"/><polyline class="cls-28" points="478.49 671.59 474.3 695.14 483.8 692.78 512.88 680.45 538.84 655.49 558.52 631.55 576.02 597.64 585.9 560.62 599.16 522.06 598.44 467.71 584.71 426.02 575.52 397.04 567.34 378.54 547.99 453.01"/><polyline class="cls-29" points="554.44 686.66 512.88 680.45 586.55 649.26"/><polyline class="cls-30" points="516.27 510.39 525.16 530.26 514.53 552.39 540.18 589.24 498.81 557.46 491.64 555.18 484.46 531.96 475.78 560.62 486.19 572.87"/><polyline class="cls-31" points="615.48 567.32 625.09 559.66 631.22 572.24 644.37 582.94 633.38 593.81 609.73 593.59"/><polyline class="cls-32" points="627.42 546.56 625.09 559.66 656.74 556.43 631.22 572.24 633.38 593.81"/><polyline class="cls-33" points="670.21 557.96 708.25 549.68 654.6 538.87"/><line class="cls-34" x1="770.36" y1="680.41" x2="681.43" y2="609.7"/><polyline class="cls-35" points="624.99 626.18 633.38 593.81 656.74 556.43 637.28 529.44 654.6 538.87 670.21 557.96 671.64 578.12 667.4 601.91 649.4 614.4 624.99 626.18 609.73 593.59 585.9 560.62 551.52 556.02 534.37 541.64 531.05 535.22 525.16 530.26 507.15 510.57 486.84 496.61 485.38 514.27 484.46 531.96 500.11 544.34"/><polyline class="cls-36" points="711.89 515.13 637.28 529.44 599.16 522.06 662.64 461.52"/><polyline class="cls-37" points="575.52 397.04 520.4 412.63 634.92 365.49 703.41 407.69 753.66 415.42 694.35 378.02 634.92 365.49 567.34 378.54 520.4 412.63 492.4 457.15 482.67 497.75 485.38 514.27 475.75 530.43 471.17 540.14 465.98 546.22 455.79 554.94 443.2 565.03 443.48 579.62 464.09 581.96 476.76 588.68 470.61 592.35 472.07 601.61 462.62 606.35 464.19 616.35 469.01 625.49 461.79 636.54 464.72 645.59 475.28 653.37 466.16 672.39 474.3 695.14 508.14 701.07 537.45 702.88 551.41 731.87 553.99 753.65"/><polyline class="cls-38" points="520.4 412.63 502.96 464.33 547.99 453.01 598.44 467.71 566.13 522.32 612.37 554.59 585.9 560.62 566.13 522.32 544.87 526.95 559.57 480.28"/><line class="cls-39" x1="567.34" y1="378.54" x2="647.13" y2="387.53"/><line class="cls-40" x1="656.96" y1="420.89" x2="694.35" y2="378.02"/><polyline class="cls-41" points="455.79 554.94 476.84 544.61 475.75 530.43"/><polyline class="cls-42" points="443.2 565.03 459.17 581.4 470.61 592.35 464.09 581.96 478.61 580.95 484.36 583.14 490.99 587.93 509.3 600.54 531.75 614.78 558.52 631.55 586.55 649.26 617.6 674.25 620.33 708.62 629.39 754.44"/><line class="cls-43" x1="478.3" y1="573.78" x2="478.61" y2="580.95"/><polyline class="cls-44" points="476.76 588.68 479.78 604.62 494.37 625.82 505.95 615.36 540.18 589.24 558.52 631.55 609.73 593.59 649.4 614.4 616.73 572.42 654.6 538.87 656.74 556.43 670.21 557.96 659.2 569.47 671.64 578.12 698.74 585 657.84 586.49 631.22 572.24 616.73 572.42"/><polyline class="cls-45" points="505.95 615.36 487.26 610.9 471.54 611.71"/><g class="cls-46"><polygon class="cls-47" points="575.49 397.19 584.48 425.57 612.05 392.33 575.49 397.19"/><polygon class="cls-48" points="597.8 467.37 584.29 426.33 548.15 452.91 597.8 467.37"/><polygon class="cls-49" points="592.49 541.16 585.91 560.31 611.56 554.46 592.49 541.16"/><polygon class="cls-50" points="526.09 479.86 558.95 480.05 547.63 453.39 526.09 479.86"/><polygon class="cls-51" points="598.27 467.47 661.54 461.36 584.74 426.38 598.27 467.47"/><polygon class="cls-50" points="598.34 467.87 599.05 521.55 661.75 461.75 598.34 467.87"/><polygon class="cls-49" points="509.95 514.25 507.72 517.88 523.4 528.95 509.95 514.25"/><polygon class="cls-49" points="507.6 517.28 509.66 513.93 507.1 511.13 507.6 517.28"/><polygon class="cls-49" points="592.14 540.91 566.39 522.94 585.55 560.06 592.14 540.91"/><polygon class="cls-49" points="524.28 530.08 508.29 518.79 516.67 530.87 524.28 530.08"/><polygon class="cls-52" points="517.32 501.81 525.28 480.47 497.94 493.6 517.32 501.81"/><polygon class="cls-49" points="525.61 479.78 547.13 453.34 503.14 464.39 525.61 479.78"/><polygon class="cls-49" points="509.89 513.57 512.07 510.02 507.26 510.7 509.89 513.57"/><polygon class="cls-49" points="515.79 510.12 517.2 502.21 498.25 494.18 512.59 509.56 515.79 510.12"/><polygon class="cls-49" points="489.17 600.27 487.19 610.72 504.92 614.95 489.17 600.27"/><polygon class="cls-49" points="509.04 544.96 519.96 539.93 524.41 530.65 508.19 538 509.04 544.96"/><polygon class="cls-49" points="532.25 528.01 516.66 511.41 524.97 529.98 532.25 528.01"/><polygon class="cls-49" points="509.43 536.99 523.61 530.56 516.65 531.29 509.43 536.99"/><polygon class="cls-49" points="499.8 544.05 515.95 531.31 484.73 532.13 499.8 544.05"/><polygon class="cls-52" points="517.68 502.03 544.46 526.55 550.71 506.7 525.73 480.45 517.68 502.03"/><polygon class="cls-49" points="516.18 510.3 532.72 527.91 544.08 526.76 517.57 502.5 516.18 510.3"/><polygon class="cls-49" points="512.59 509.98 510.18 513.89 524.13 529.13 515.81 510.55 512.59 509.98"/><polygon class="cls-49" points="539.46 589.78 520.18 604.5 531.34 614.39 539.46 589.78"/><polygon class="cls-52" points="539.89 589.79 531.68 614.66 557.75 630.99 539.89 589.79"/><polygon class="cls-51" points="551.36 556.23 540.25 588.72 584.99 560.72 551.36 556.23"/><polygon class="cls-49" points="498.31 557.16 499.52 545 491.68 555.05 498.31 557.16"/><polygon class="cls-49" points="517.4 606.09 508.88 600.69 497.67 592.97 505.74 615 517.4 606.09"/><polygon class="cls-49" points="486.11 572.79 492.84 580.22 496.31 568.48 491.36 555.79 486.11 572.79"/><polygon class="cls-50" points="484.44 531.72 515.85 530.9 489.48 515.09 484.44 531.72"/><polygon class="cls-49" points="497.1 622.76 486.86 611.09 484.29 611.22 494.1 625.47 497.1 622.76"/><polygon class="cls-49" points="619.08 613.71 628.78 609.5 630.04 604.62 609.87 594.03 619.08 613.71"/><polygon class="cls-49" points="632.8 593.99 610.28 593.78 630.15 604.2 632.8 593.99"/><polygon class="cls-48" points="616.2 572.38 611.9 554.81 585.95 560.73 609.35 593.11 616.2 572.38"/><polygon class="cls-52" points="616.49 572.83 609.71 593.36 632.64 593.57 616.49 572.83"/><polygon class="cls-49" points="575.79 597.92 558.8 630.82 590.19 607.56 575.79 597.92"/><polygon class="cls-52" points="585.68 561.07 575.96 597.53 590.54 607.29 609.13 593.51 585.68 561.07"/><polygon class="cls-52" points="590.56 607.8 559.16 631.08 607.57 619.19 590.56 607.8"/><polygon class="cls-49" points="640.34 603.46 635.45 606.98 648.34 613.74 640.34 603.46"/><polygon class="cls-49" points="657.2 586.52 646.63 580.86 644.29 582.99 647.7 597.55 657.2 586.52"/><polygon class="cls-49" points="630.42 604.81 629.26 609.29 634.57 606.99 630.42 604.81"/><polygon class="cls-49" points="656.62 556.21 669.41 557.67 654.59 539.53 656.62 556.21"/><polygon class="cls-49" points="656.68 556.64 659.02 569.01 669.46 558.09 656.68 556.64"/><polygon class="cls-49" points="640.09 603.13 633.17 594.25 630.53 604.4 635.04 606.76 640.09 603.13"/><polygon class="cls-52" points="575.41 597.76 540.22 589.5 558.23 631.04 575.41 597.76"/><polygon class="cls-49" points="643.94 583.33 633.35 593.8 640.42 602.89 647.35 597.9 643.94 583.33"/><polygon class="cls-49" points="505.66 642.27 499.33 625.38 494.13 625.99 483.73 632.56 505.66 642.27"/><polygon class="cls-49" points="483.48 582.67 485.61 573.08 478.2 573.94 478.51 580.77 483.48 582.67"/><polygon class="cls-49" points="488.81 599.91 482.15 590.71 479.69 604.51 486.81 610.49 488.81 599.91"/><polygon class="cls-49" points="478.08 580.6 477.78 573.93 470.13 572.59 467.93 576.34 478.08 580.6"/><polygon class="cls-49" points="470.33 572.2 477.99 573.54 485.47 572.68 475.52 560.98 470.33 572.2"/><polygon class="cls-49" points="469.97 571.98 475.01 561.08 465.19 566.53 469.97 571.98"/><polygon class="cls-51" points="485.79 572.42 491.01 555.48 475.82 560.69 485.79 572.42"/><polygon class="cls-49" points="486.42 610.7 480.51 605.74 484.01 610.82 486.42 610.7"/><polygon class="cls-52" points="550.85 506.25 558.98 480.46 526.14 480.27 550.85 506.25"/><polygon class="cls-49" points="538.47 655.8 513.53 679.79 544.02 666.89 538.47 655.8"/><polygon class="cls-47" points="519.81 644.67 538.48 655.19 557.59 631.95 519.81 644.67"/><polygon class="cls-47" points="537.81 655.86 502.38 665.19 512.61 680.1 537.81 655.86"/><polygon class="cls-48" points="531.53 615.06 519.67 644.28 557.72 631.47 531.53 615.06"/><polygon class="cls-52" points="499.51 544.35 484.55 532.51 491.42 554.71 499.51 544.35"/><polygon class="cls-49" points="505.28 648.07 502.38 664.34 518.75 644.97 505.28 648.07"/><path class="cls-51" d="M650.65,642.64s0,0,0,.05l-.87,4.94,13.64-3.15L650,615.77l-5.91,9.41,6.53,17.41Z" transform="translate(-144.42)"/><polygon class="cls-51" points="537.98 655.39 519.36 644.89 502.63 664.7 537.98 655.39"/><polygon class="cls-49" points="642.34 578.56 632.72 573.41 641.23 580.34 642.34 578.56"/><polygon class="cls-49" points="641.33 580.96 634.19 592.38 643.75 582.93 641.33 580.96"/><polygon class="cls-49" points="646.24 580.65 642.7 578.76 641.55 580.6 644.05 582.64 646.24 580.65"/><polygon class="cls-52" points="658.66 569.37 656.32 556.97 642.92 578.4 646.57 580.36 658.66 569.37"/><polygon class="cls-49" points="641 580.7 631.17 572.69 633.22 593.16 641 580.7"/><polygon class="cls-49" points="626.67 563.03 630.99 559.21 625.1 559.81 626.67 563.03"/><polygon class="cls-49" points="616.97 572.17 630.58 572 626.53 563.71 616.97 572.17"/><polygon class="cls-47" points="630.72 572.42 616.84 572.59 632.79 593.08 630.72 572.42"/><polygon class="cls-49" points="592.63 540.75 611.91 554.2 615.45 534.31 598.96 522.36 592.63 540.75"/><polygon class="cls-49" points="615.73 534 635.96 529.43 599.73 522.41 615.73 534"/><polygon class="cls-52" points="505.96 615.53 519.29 644.1 531.12 614.97 505.96 615.53"/><polygon class="cls-48" points="642.56 578.21 655.78 557.05 631.32 572.2 642.56 578.21"/><polygon class="cls-49" points="632.23 558.66 655.64 556.27 641.95 550.06 632.23 558.66"/><polygon class="cls-49" points="616.08 534.34 627.07 546.18 636.55 529.72 616.08 534.34"/><polygon class="cls-49" points="648.15 544.56 656.12 555.62 654.13 539.26 648.15 544.56"/><polygon class="cls-49" points="625.03 559.4 631.52 558.74 641.47 549.92 627.28 546.78 625.03 559.4"/><polygon class="cls-50" points="506.9 510.33 512.06 509.6 497.36 493.84 487.02 496.67 506.9 510.33"/><polygon class="cls-52" points="497.45 492.3 502.42 464.4 492.37 457.56 497.45 492.3"/><polygon class="cls-49" points="523.51 411.42 561.02 400.81 562.43 395.4 523.51 411.42"/><polygon class="cls-49" points="561.37 401.14 560.07 406.15 573.85 397.62 561.37 401.14"/><polygon class="cls-50" points="655.05 503.57 711.38 514.85 713.25 476.47 662.49 461.75 655.05 503.57"/><polygon class="cls-47" points="585.7 649.69 555.3 662.56 572.38 670.02 585.7 649.69"/><polygon class="cls-47" points="655.55 556.7 631.7 559.13 626.86 563.42 631 571.91 655.55 556.7"/><polygon class="cls-51" points="558.25 631.8 538.87 655.38 554.78 662.33 585.8 649.2 558.25 631.8"/><polygon class="cls-47" points="612.34 554.17 626.78 546.47 615.81 534.67 612.34 554.17"/><polygon class="cls-49" points="624.59 559.52 626.83 546.91 612.3 554.67 615.3 566.93 624.59 559.52"/><polygon class="cls-49" points="626.35 563.32 624.71 559.96 615.41 567.37 616.54 572 626.35 563.32"/><polygon class="cls-49" points="548.03 452.47 583.78 426.19 555.04 425.52 548.03 452.47"/><polygon class="cls-49" points="662.87 586.06 658.99 570.72 657.76 586.24 662.87 586.06"/><polygon class="cls-49" points="646.96 580.56 657.35 586.13 658.63 569.96 646.96 580.56"/><polygon class="cls-49" points="555.14 425.1 582.16 425.74 556.38 420.37 555.14 425.1"/><polygon class="cls-49" points="506.82 547.99 514.13 552.08 519.68 540.51 509 545.43 506.82 547.99"/><polygon class="cls-52" points="517.75 605.82 519.52 604.47 493.42 581.34 497.43 592.29 509.11 600.34 517.75 605.82"/><polygon class="cls-49" points="491.6 588.28 496.83 591.88 492.99 581.4 491.6 588.28"/><polygon class="cls-51" points="530.74 614.56 517.77 606.33 506.27 615.11 530.74 614.56"/><path class="cls-50" d="M656.93,584.8l26.58,4.08-40.45-31.07-1.9,10.69v0h0l-3.54,12Z" transform="translate(-144.42)"/><polygon class="cls-48" points="489.26 599.79 505.14 614.59 497.08 592.56 491.51 588.73 489.26 599.79"/><polygon class="cls-49" points="518.13 606.06 529.35 613.18 519.84 604.76 518.13 606.06"/><polygon class="cls-49" points="496.46 567.7 498.26 557.58 491.69 555.48 496.46 567.7"/><polygon class="cls-48" points="565.84 522.78 551.52 555.83 585.22 560.33 565.84 522.78"/><polygon class="cls-51" points="565.94 521.68 597.67 468.05 559.49 480.4 565.94 521.68"/><polygon class="cls-49" points="498.77 556.79 506.17 548.11 499.98 544.65 498.77 556.79"/><polygon class="cls-51" points="550.93 556.18 514.65 552.62 539.8 588.75 550.93 556.18"/><polygon class="cls-49" points="544.87 526.64 565.42 522.17 551.04 507.05 544.87 526.64"/><polygon class="cls-52" points="512.44 585.21 493.68 581.01 519.86 604.22 539.35 589.34 512.44 585.21"/><polygon class="cls-52" points="565.47 522.58 544.68 527.11 534.34 541.58 551.13 555.66 565.47 522.58"/><polygon class="cls-49" points="483.95 583.29 483.79 583.23 482.26 590.14 488.92 599.36 491.13 588.47 490.56 588.08 483.95 583.29"/><polygon class="cls-47" points="597.93 468.43 566.19 522.08 598.64 521.82 597.93 468.43"/><polygon class="cls-49" points="598.56 522.24 566.48 522.49 592.28 540.5 598.56 522.24"/><polygon class="cls-49" points="504.66 616.49 497.68 622.8 499.44 624.81 504.66 616.49"/><polygon class="cls-47" points="532.8 528.32 530.96 535.17 534.09 541.22 544.12 527.18 532.8 528.32"/><polygon class="cls-49" points="500.17 544.28 506.45 547.79 508.65 545.2 507.8 538.27 500.17 544.28"/><polygon class="cls-48" points="487.54 611.23 497.41 622.49 505.21 615.44 487.54 611.23"/><path class="cls-49" d="M637.12,580.7l-6.71-7.42-2.12,9.54.25.1.05,0,6.63,4.8.42.28Z" transform="translate(-144.42)"/><polygon class="cls-50" points="494.68 625.51 499.05 625 497.37 623.08 494.68 625.51"/><polygon class="cls-49" points="499.13 557.01 513.7 552.31 506.54 548.32 499.13 557.01"/><polygon class="cls-47" points="538.93 588.22 514.13 552.61 498.94 557.51 538.93 588.22"/><polygon class="cls-49" points="559.38 480 597.42 467.69 548.04 453.31 559.38 480"/><polygon class="cls-49" points="530.62 534.82 532.34 528.42 525.29 530.33 530.62 534.82"/><polygon class="cls-49" points="550.57 555.73 534.03 541.87 514.91 552.23 550.57 555.73"/><polygon class="cls-49" points="520.56 539.65 530.36 535.14 524.92 530.56 520.56 539.65"/><polygon class="cls-49" points="514.68 551.88 533.78 541.53 530.65 535.46 520.27 540.24 514.68 551.88"/><polygon class="cls-49" points="475.8 558.79 483.48 533.45 476.73 544.65 475.8 558.79"/><polygon class="cls-49" points="484.82 515.07 475.77 530.25 483.96 531.69 484.82 515.07"/><polygon class="cls-49" points="483.82 532.08 475.67 530.66 476.69 543.92 483.82 532.08"/><polygon class="cls-49" points="475.29 531.21 471.12 540.05 476.28 544.12 475.29 531.21"/><polygon class="cls-49" points="464.37 582.48 470.37 592.03 476.02 588.66 464.37 582.48"/><polygon class="cls-49" points="491.28 461.43 482.64 497.43 486.35 496.42 491.28 461.43"/><polygon class="cls-49" points="482.59 497.88 485 512.53 486.3 496.86 482.59 497.88"/><polygon class="cls-49" points="470.89 540.4 465.83 546.32 456.86 554 476.14 544.54 470.89 540.4"/><polygon class="cls-49" points="458.73 580.94 459.99 573.84 443.91 565.75 458.73 580.94"/><polygon class="cls-49" points="443.94 579.88 455.58 588.25 458.56 581.55 443.94 579.88"/><polygon class="cls-52" points="443.11 565.53 443.37 579.4 458.31 581.1 443.11 565.53"/><polygon class="cls-49" points="455.96 588.43 469.58 591.92 458.93 581.73 455.96 588.43"/><polygon class="cls-49" points="464.6 566.5 458.74 560.44 443.45 565.05 460.15 573.46 464.6 566.5"/><polygon class="cls-49" points="455.43 555.22 443.86 564.5 458.49 560.08 455.43 555.22"/><polygon class="cls-52" points="469.17 552.16 475.6 545.27 455.78 555 458.86 559.9 469.17 552.16"/><polygon class="cls-51" points="497.2 493.46 492.1 458.59 486.79 496.3 497.2 493.46"/><polygon class="cls-49" points="489.11 514.53 486.6 498.36 485.3 514.06 489.11 514.53"/><polygon class="cls-49" points="509.8 442.46 492.44 457.1 502.54 463.98 509.8 442.46"/><polygon class="cls-49" points="646.45 387.25 634.57 365.82 619.33 384.2 646.45 387.25"/><polygon class="cls-47" points="752.39 415.04 694.4 378.47 703.26 407.48 752.39 415.04"/><polygon class="cls-51" points="702.74 407.2 693.95 378.41 680.7 393.62 702.74 407.2"/><polygon class="cls-49" points="632.61 366.05 568.41 378.46 595.16 381.48 632.61 366.05"/><polygon class="cls-49" points="680.34 393.39 693.48 378.32 665.14 384.03 680.34 393.39"/><polygon class="cls-51" points="693.01 377.99 635.73 365.91 664.62 383.71 693.01 377.99"/><polygon class="cls-48" points="664.02 383.83 635.18 366.05 646.93 387.27 664.02 383.83"/><polygon class="cls-49" points="594.36 381.8 567.37 378.76 572.67 390.74 594.36 381.8"/><polygon class="cls-52" points="530.19 424.71 520.18 413.02 510.67 441.18 530.19 424.71"/><polygon class="cls-51" points="519.33 414.21 492.99 456.1 510.06 441.7 519.33 414.21"/><polygon class="cls-49" points="541.97 417.37 520.65 412.93 530.53 424.46 541.97 417.37"/><polygon class="cls-49" points="572.28 390.89 567.09 379.15 563.05 394.7 572.28 390.89"/><polygon class="cls-49" points="559.55 406.47 560.9 401.28 520.97 412.57 542.48 417.06 559.55 406.47"/><polygon class="cls-48" points="566.68 379.03 521.63 411.75 562.56 394.9 566.68 379.03"/><polygon class="cls-47" points="618.84 384.14 633.91 365.97 596.01 381.57 618.84 384.14"/><polygon class="cls-47" points="617.43 673.79 653.77 638.44 608.34 619.62 617.43 673.79"/><polygon class="cls-47" points="649.22 614.54 625.18 626.14 654.02 638.09 666.68 602.42 649.22 614.54"/><polygon class="cls-47" points="554.62 686.48 574.99 688.67 572.31 670.7 554.62 686.48"/><polygon class="cls-47" points="654.67 637.5 680.79 609.72 667.21 602.18 654.67 637.5"/><polygon class="cls-47" points="580.49 714.71 616.59 674.69 575.48 689.04 580.49 714.71"/><polygon class="cls-50" points="572.68 670.33 575.41 688.62 616.87 674.15 586.29 649.54 572.68 670.33"/><polygon class="cls-49" points="670.17 585.79 673.46 585.67 671.38 578.96 670.17 585.79"/><polygon class="cls-47" points="637.87 529.45 707.76 549.39 711.34 515.36 637.87 529.45"/><polygon class="cls-49" points="642.29 549.76 655.8 555.89 647.84 544.84 642.29 549.76"/><polygon class="cls-49" points="667.33 601.77 680.77 609.23 673.59 586.08 670.09 586.21 667.33 601.77"/><polygon class="cls-47" points="681.2 609.2 698.02 585.19 674.02 586.07 681.2 609.2"/><polygon class="cls-49" points="671.64 578.38 673.89 585.65 696.97 584.81 671.64 578.38"/><polygon class="cls-49" points="473.92 694.31 477.93 671.78 466.14 672.55 473.92 694.31"/><polygon class="cls-49" points="468.7 625.84 461.98 636.13 473.15 632.46 468.7 625.84"/><polygon class="cls-47" points="461.76 636.73 464.58 645.44 474.48 652.72 467.75 636.89 461.76 636.73"/><polygon class="cls-49" points="492.65 625.56 464.3 616.67 468.83 625.25 492.65 625.56"/><polygon class="cls-49" points="479.07 604.66 471.77 601.81 462.74 606.34 471.21 611.42 479.07 604.66"/><polygon class="cls-49" points="483.16 652.39 475.19 635.54 468.19 636.85 475.11 653.12 483.16 652.39"/><polygon class="cls-49" points="478.84 616.84 471.23 611.92 464.37 616.25 492.47 625.07 478.84 616.84"/><polygon class="cls-47" points="462.58 606.73 464.03 615.97 470.84 611.68 462.58 606.73"/><polygon class="cls-49" points="551.89 698.05 553.89 686.8 514.01 680.85 551.89 698.05"/><polygon class="cls-49" points="478.22 672.55 474.25 694.84 483.24 692.6 478.22 672.55"/><polygon class="cls-47" points="474.99 695.08 507.87 700.84 537.12 702.65 550.94 698.47 483.5 692.96 474.99 695.08"/><polygon class="cls-49" points="474.88 654.01 466.19 672.13 477.94 671.37 474.88 654.01"/><polygon class="cls-50" points="554.77 662.78 544.59 667.09 554.2 686.29 572.08 670.35 554.77 662.78"/><polygon class="cls-51" points="483.42 652.79 475.22 653.52 478.35 671.3 501.55 664.99 483.42 652.79"/><polygon class="cls-49" points="479.19 604.26 476.3 588.99 470.53 592.42 471.95 601.43 479.19 604.26"/><polygon class="cls-47" points="552.32 698.02 574.4 689.02 554.31 686.86 552.32 698.02"/><polygon class="cls-49" points="503.31 463 529.38 425.94 510.42 441.94 503.31 463"/><polygon class="cls-49" points="556.07 419.88 559.4 407.06 543.07 417.18 556.07 419.88"/><path class="cls-51" d="M634,514.65l26.3,15.76-8.58-12.35s0,0,0-.06a0,0,0,0,0,0,0v0l-.59-7.3L631.23,497Z" transform="translate(-144.42)"/><polygon class="cls-52" points="497.71 493.25 525.25 480.03 502.8 464.66 497.71 493.25"/><polygon class="cls-52" points="503.14 463.96 547.36 452.86 530.47 425.11 503.14 463.96"/><polygon class="cls-49" points="531.19 424.54 554.72 425.09 555.97 420.28 542.56 417.49 531.19 424.54"/><polygon class="cls-50" points="547.61 452.46 554.61 425.51 530.86 424.95 547.61 452.46"/><polygon class="cls-49" points="484.45 530.25 489.09 514.95 485.27 514.47 484.45 530.25"/><polygon class="cls-49" points="467.7 576.7 464.2 581.7 477.42 580.77 467.7 576.7"/><polygon class="cls-49" points="463.66 582.13 459.45 581.65 469.23 591 463.66 582.13"/><polygon class="cls-51" points="478.03 581.15 464.52 582.09 476.31 588.34 478.03 581.15"/><polygon class="cls-47" points="459.11 581.19 463.68 581.71 467.3 576.54 460.39 574.01 459.11 581.19"/><polygon class="cls-47" points="491.07 555.02 484.16 532.65 475.79 560.26 491.07 555.02"/><polygon class="cls-49" points="483.39 583.08 478.45 581.2 476.7 588.51 481.88 589.93 483.39 583.08"/><polygon class="cls-52" points="467.54 576.19 469.77 572.38 464.89 566.83 460.54 573.62 467.54 576.19"/><polygon class="cls-51" points="709.62 438.45 656.9 421.17 662.5 461.18 709.62 438.45"/><polygon class="cls-49" points="709.15 437.86 669.73 406.18 657.02 420.77 709.15 437.86"/><polygon class="cls-49" points="647.91 388.12 669.68 405.61 676.12 398.22 647.91 388.12"/><polygon class="cls-48" points="702.92 407.82 676.55 398.37 670.01 405.87 709.84 437.88 702.92 407.82"/><polygon class="cls-52" points="627.44 546.39 641.85 549.59 647.59 544.5 636.99 529.8 627.44 546.39"/><polygon class="cls-52" points="662.01 462.08 599.66 521.55 654.62 503.58 662.01 462.08"/><polygon class="cls-49" points="599.68 521.98 636.88 529.18 654.28 504.13 599.68 521.98"/><polygon class="cls-50" points="612.66 392.25 584.87 425.75 656.38 420.68 646.67 387.73 612.66 392.25"/><polygon class="cls-49" points="613.05 391.78 645.11 387.52 619.02 384.58 613.05 391.78"/><polygon class="cls-51" points="572.84 391.12 575.34 396.79 612.44 391.86 618.52 384.52 595.22 381.9 572.84 391.12"/><polygon class="cls-49" points="562.92 395.2 561.49 400.68 574.93 396.88 572.45 391.27 562.92 395.2"/><polygon class="cls-49" points="676.84 398.04 701.3 406.8 680.42 393.93 676.84 398.04"/><polygon class="cls-52" points="556.48 419.97 584.09 425.72 575.1 397.33 559.92 406.74 556.48 419.97"/><polygon class="cls-49" points="647.59 387.56 676.42 397.89 680.06 393.71 664.54 384.15 647.59 387.56"/><polygon class="cls-49" points="656.75 420.44 669.41 405.92 647.2 388.08 656.75 420.44"/><polygon class="cls-52" points="609.19 593.99 590.91 607.54 607.88 618.9 609.19 593.99"/><polygon class="cls-49" points="666.57 601.99 647.63 598.21 640.68 603.22 649.14 614.09 666.57 601.99"/><polygon class="cls-49" points="669.67 586.22 663.4 586.45 667.06 600.89 669.67 586.22"/><polygon class="cls-52" points="662.98 586.47 657.63 586.66 647.98 597.86 666.81 601.61 662.98 586.47"/><polygon class="cls-48" points="635.04 607.23 629.13 609.8 624.99 625.77 648.63 614.37 635.04 607.23"/><polygon class="cls-47" points="710.36 438.28 755.88 461.62 740.78 438.96 703.44 408.22 710.36 438.28"/><polygon class="cls-52" points="607.57 619.62 558.73 631.61 586.19 648.95 607.57 619.62"/><polygon class="cls-52" points="624.26 625.76 609.59 594.41 608.29 619.15 624.26 625.76"/><polygon class="cls-52" points="628.65 610.01 619.25 614.08 624.62 625.54 628.65 610.01"/><polygon class="cls-49" points="671.1 578.18 659.23 569.93 663.3 586.04 669.74 585.81 671.1 578.18"/><polygon class="cls-47" points="662.91 461.44 713.23 476.04 709.99 438.73 662.91 461.44"/><polygon class="cls-49" points="647.91 544.22 653.93 538.88 637.68 530.03 647.91 544.22"/><polygon class="cls-52" points="654.9 503.97 637.43 529.11 710.5 515.09 654.9 503.97"/><polygon class="cls-49" points="654.37 538.65 702.84 548.42 638.72 530.13 654.37 538.65"/><polygon class="cls-52" points="659.2 569.41 671.1 577.67 669.72 558.41 659.2 569.41"/><polygon class="cls-50" points="654.82 539.16 669.98 557.7 706.93 549.66 654.82 539.16"/><polygon class="cls-50" points="469.1 625.67 473.56 632.32 492.82 625.98 469.1 625.67"/><polygon class="cls-49" points="483.22 632.4 492.52 626.51 473.8 632.68 475.4 635.06 483.22 632.4"/><polygon class="cls-49" points="538.98 655.88 544.4 666.72 554.25 662.55 538.98 655.88"/><polygon class="cls-52" points="481.79 590.33 476.72 588.94 479.46 603.43 481.79 590.33"/><polygon class="cls-52" points="493.34 625.11 483.8 611.25 471.89 611.85 479.07 616.49 493.34 625.11"/><polygon class="cls-49" points="467.9 636.49 474.96 635.16 473.39 632.81 462.67 636.34 467.9 636.49"/><polygon class="cls-52" points="483.52 610.84 479.43 604.9 471.83 611.44 483.52 610.84"/><polygon class="cls-49" points="504.92 647.73 505.74 643.09 495 650.02 504.92 647.73"/><polygon class="cls-51" points="505.6 642.69 483.27 632.81 475.74 635.38 493.9 650.23 505.6 642.69"/><polygon class="cls-51" points="512.57 680.65 484.35 692.61 550.88 698.05 512.57 680.65"/><polygon class="cls-49" points="493.41 650.37 475.9 636.05 483.59 652.34 493.41 650.37"/><polygon class="cls-47" points="544.2 667.26 513.34 680.33 553.77 686.37 544.2 667.26"/><polygon class="cls-47" points="504.84 648.17 493.93 650.69 493.93 650.69 493.93 650.69 484 652.68 501.89 664.72 504.84 648.17"/><polygon class="cls-49" points="512.09 680.08 501.95 665.31 479 671.55 512.09 680.08"/></g><path class="cls-53" d="M716.8,523.41a6.35,6.35,0,1,1-5.15-7.29A6.35,6.35,0,0,1,716.8,523.41Z" transform="translate(-144.42)"/><path class="cls-54" d="M678.64,425.08a3.81,3.81,0,1,1-3.09-4.38A3.8,3.8,0,0,1,678.64,425.08Z" transform="translate(-144.42)"/><path class="cls-55" d="M651.3,465.37a3.81,3.81,0,1,1-3.09-4.38A3.82,3.82,0,0,1,651.3,465.37Z" transform="translate(-144.42)"/><path class="cls-56" d="M655.92,518.62a3.81,3.81,0,1,1-3.09-4.38A3.81,3.81,0,0,1,655.92,518.62Z" transform="translate(-144.42)"/><path class="cls-57" d="M667.78,645.31a3.81,3.81,0,1,1-3.09-4.38A3.79,3.79,0,0,1,667.78,645.31Z" transform="translate(-144.42)"/><path class="cls-58" d="M702.57,687.55a3.81,3.81,0,1,1-3.09-4.38A3.79,3.79,0,0,1,702.57,687.55Z" transform="translate(-144.42)"/><path class="cls-59" d="M686.73,655.86a3.81,3.81,0,1,1-3.09-4.38A3.81,3.81,0,0,1,686.73,655.86Z" transform="translate(-144.42)"/><path class="cls-60" d="M610,637.21a3.81,3.81,0,1,1-3.09-4.38A3.8,3.8,0,0,1,610,637.21Z" transform="translate(-144.42)"/><ellipse class="cls-61" cx="585.11" cy="560.97" rx="3.81" ry="3.78"/><path class="cls-62" d="M803,504.61a3.81,3.81,0,1,1-3.09-4.38A3.81,3.81,0,0,1,803,504.61Z" transform="translate(-144.42)"/><path class="cls-63" d="M858.81,439.5a3.81,3.81,0,1,1-3.09-4.38A3.81,3.81,0,0,1,858.81,439.5Z" transform="translate(-144.42)"/><path class="cls-64" d="M810.71,462.16a3.81,3.81,0,1,1-3.09-4.38A3.81,3.81,0,0,1,810.71,462.16Z" transform="translate(-144.42)"/><path class="cls-65" d="M732.93,427a3.81,3.81,0,1,1-3.09-4.38A3.81,3.81,0,0,1,732.93,427Z" transform="translate(-144.42)"/><path class="cls-66" d="M707.69,481.21a3.81,3.81,0,1,1-3.09-4.37A3.81,3.81,0,0,1,707.69,481.21Z" transform="translate(-144.42)"/><path class="cls-67" d="M765.84,674.49a3.81,3.81,0,1,1-3.09-4.37A3.8,3.8,0,0,1,765.84,674.49Z" transform="translate(-144.42)"/><path class="cls-68" d="M729.12,715.9a3.81,3.81,0,1,1-3.09-4.38A3.8,3.8,0,0,1,729.12,715.9Z" transform="translate(-144.42)"/><path class="cls-69" d="M773.15,626.84a3.81,3.81,0,1,1-3.09-4.38A3.8,3.8,0,0,1,773.15,626.84Z" transform="translate(-144.42)"/><path class="cls-70" d="M861.94,477a3.81,3.81,0,1,1-3.09-4.37A3.8,3.8,0,0,1,861.94,477Z" transform="translate(-144.42)"/><path class="cls-71" d="M860,516.1a3.81,3.81,0,1,1-3.09-4.38A3.8,3.8,0,0,1,860,516.1Z" transform="translate(-144.42)"/><path class="cls-72" d="M846.91,585.65a3.81,3.81,0,1,1-3.09-4.38A3.82,3.82,0,0,1,846.91,585.65Z" transform="translate(-144.42)"/><path class="cls-73" d="M723.77,689.31a3.81,3.81,0,1,1-3.09-4.37A3.82,3.82,0,0,1,723.77,689.31Z" transform="translate(-144.42)"/><path class="cls-74" d="M723.11,397.44a3.81,3.81,0,1,1-3.09-4.38A3.8,3.8,0,0,1,723.11,397.44Z" transform="translate(-144.42)"/><path class="cls-75" d="M782.15,366.26a3.81,3.81,0,1,1-3.09-4.38A3.81,3.81,0,0,1,782.15,366.26Z" transform="translate(-144.42)"/><path class="cls-76" d="M664.36,511a3.81,3.81,0,1,1-3.09-4.37A3.81,3.81,0,0,1,664.36,511Z" transform="translate(-144.42)"/><path class="cls-77" d="M632.82,532.65a3.81,3.81,0,1,1-3.09-4.38A3.8,3.8,0,0,1,632.82,532.65Z" transform="translate(-144.42)"/><path class="cls-78" d="M749.83,523.15a6.35,6.35,0,1,1-5.15-7.3A6.35,6.35,0,0,1,749.83,523.15Z" transform="translate(-144.42)"/><path class="cls-79" d="M622.21,612.8a6.35,6.35,0,1,1-5.15-7.29A6.34,6.34,0,0,1,622.21,612.8Z" transform="translate(-144.42)"/><path class="cls-80" d="M645.23,626.94a6.35,6.35,0,1,1-5.15-7.29A6.34,6.34,0,0,1,645.23,626.94Z" transform="translate(-144.42)"/><path class="cls-81" d="M623.64,654.06a3.81,3.81,0,1,1-3.09-4.38A3.8,3.8,0,0,1,623.64,654.06Z" transform="translate(-144.42)"/><path class="cls-82" d="M653.13,665.61a6.35,6.35,0,1,1-5.15-7.29A6.35,6.35,0,0,1,653.13,665.61Z" transform="translate(-144.42)"/><ellipse class="cls-83" cx="512.89" cy="680.45" rx="6.35" ry="6.3"/><ellipse class="cls-84" cx="474.22" cy="695.13" rx="6.35" ry="6.3"/><path class="cls-85" d="M709.46,632.45a6.35,6.35,0,1,1-5.15-7.29A6.34,6.34,0,0,1,709.46,632.45Z" transform="translate(-144.42)"/><path class="cls-86" d="M741.54,651.11a10.73,10.73,0,1,1-8.7-12.33A10.72,10.72,0,0,1,741.54,651.11Z" transform="translate(-144.42)"/><path class="cls-87" d="M808.76,640.29a10.73,10.73,0,1,1-8.7-12.33A10.73,10.73,0,0,1,808.76,640.29Z" transform="translate(-144.42)"/><path class="cls-88" d="M626.48,561.55a6.35,6.35,0,1,1-5.15-7.3A6.35,6.35,0,0,1,626.48,561.55Z" transform="translate(-144.42)"/><path class="cls-89" d="M631.85,546.29a10.73,10.73,0,1,1-8.7-12.33A10.72,10.72,0,0,1,631.85,546.29Z" transform="translate(-144.42)"/><path class="cls-90" d="M675.84,531.58a6.35,6.35,0,1,1-5.15-7.29A6.33,6.33,0,0,1,675.84,531.58Z" transform="translate(-144.42)"/><path class="cls-91" d="M650.52,545.35a6.35,6.35,0,1,1-5.15-7.29A6.35,6.35,0,0,1,650.52,545.35Z" transform="translate(-144.42)"/><path class="cls-92" d="M715.51,379.2a3.81,3.81,0,1,1-3.09-4.38A3.8,3.8,0,0,1,715.51,379.2Z" transform="translate(-144.42)"/><path class="cls-93" d="M671.62,413.82a6.35,6.35,0,1,1-5.15-7.29A6.35,6.35,0,0,1,671.62,413.82Z" transform="translate(-144.42)"/><path class="cls-94" d="M643.06,458.32a6.35,6.35,0,1,1-5.15-7.29A6.34,6.34,0,0,1,643.06,458.32Z" transform="translate(-144.42)"/><path class="cls-95" d="M676.54,481.7a6.35,6.35,0,1,1-5.15-7.3A6.34,6.34,0,0,1,676.54,481.7Z" transform="translate(-144.42)"/><path class="cls-96" d="M807.63,422a6.35,6.35,0,1,1-5.15-7.3A6.35,6.35,0,0,1,807.63,422Z" transform="translate(-144.42)"/><path class="cls-97" d="M802.46,389.44a10.73,10.73,0,1,1-8.7-12.33A10.72,10.72,0,0,1,802.46,389.44Z" transform="translate(-144.42)"/><path class="cls-98" d="M788.3,530.6a6.35,6.35,0,1,1-5.15-7.3A6.34,6.34,0,0,1,788.3,530.6Z" transform="translate(-144.42)"/><ellipse class="cls-99" cx="656.74" cy="556.43" rx="10.73" ry="10.64"/><path class="cls-100" d="M766.11,568.66a6.35,6.35,0,1,1-5.15-7.3A6.35,6.35,0,0,1,766.11,568.66Z" transform="translate(-144.42)"/><path class="cls-101" d="M781.81,594.51a3.81,3.81,0,1,1-3.09-4.37A3.8,3.8,0,0,1,781.81,594.51Z" transform="translate(-144.42)"/><ellipse class="cls-102" cx="649.53" cy="614.42" rx="6.35" ry="6.3"/><path class="cls-103" d="M723.94,598.24a3.81,3.81,0,1,1-3.09-4.37A3.8,3.8,0,0,1,723.94,598.24Z" transform="translate(-144.42)"/><path class="cls-104" d="M690.85,590.33a6.35,6.35,0,1,1-5.15-7.3A6.35,6.35,0,0,1,690.85,590.33Z" transform="translate(-144.42)"/><path class="cls-105" d="M696.16,453.67a3.81,3.81,0,1,1-3.09-4.38A3.8,3.8,0,0,1,696.16,453.67Z" transform="translate(-144.42)"/><path class="cls-106" d="M753.13,470.09a10.73,10.73,0,1,1-8.7-12.33A10.72,10.72,0,0,1,753.13,470.09Z" transform="translate(-144.42)"/><path class="cls-107" d="M636.09,515.15a6.35,6.35,0,1,1-5.15-7.3A6.35,6.35,0,0,1,636.09,515.15Z" transform="translate(-144.42)"/><path class="cls-108" d="M643.91,581.76a6.35,6.35,0,1,1-5.15-7.3A6.35,6.35,0,0,1,643.91,581.76Z" transform="translate(-144.42)"/><polygon class="cls-109" points="405.39 753 334.57 665.71 447.24 657.45 405.39 753"/><polygon class="cls-110" points="840.76 669.51 691.16 674.07 772.31 549.35 840.76 669.51"/><polygon class="cls-111" points="854.16 360.15 704.55 364.71 785.71 239.99 854.16 360.15"/><polygon class="cls-112" points="783.21 781.99 729.63 643.4 875.1 678.33 783.21 781.99"/><polygon class="cls-113" points="692.2 412.06 638.61 273.46 784.08 308.4 692.2 412.06"/><polygon class="cls-114" points="476.89 741.42 364.47 730.31 437.52 644.84 476.89 741.42"/><polygon class="cls-114" points="716.13 754.73 636.55 675.2 747.75 655.39 716.13 754.73"/><polygon class="cls-114" points="703.15 546.35 684.01 435.93 786.54 482.99 703.15 546.35"/><polygon class="cls-114" points="656.16 705.94 577.8 625.23 689.29 607.08 656.16 705.94"/><polygon class="cls-115" points="642.69 487.01 718.41 487.11 675.34 548.87 642.69 487.01"/><polygon class="cls-114" points="591.06 782.99 586.33 671.05 681.94 730.75 591.06 782.99"/><polygon class="cls-114" points="523.62 394.79 518.89 282.85 614.5 342.54 523.62 394.79"/><polygon class="cls-114" points="465.14 393.26 487.77 431.95 442.81 428.46 465.14 393.26"/><polygon class="cls-116" points="387.62 644.15 408.61 637.43 402.27 658.38 387.62 644.15"/><polygon class="cls-117" points="373.52 690.53 372.8 677.87 383.72 684.47 373.52 690.53"/><polygon class="cls-118" points="341.2 642.78 363.9 703.01 301.01 687.34 341.2 642.78"/><polygon class="cls-119" points="539.02 283.13 605.43 373.77 492.49 376.53 539.02 283.13"/><polygon class="cls-120" points="495.51 403.65 471.99 343.73 535.08 358.55 495.51 403.65"/><polygon class="cls-121" points="468.75 420.16 477.57 400.11 489.21 418.69 468.75 420.16"/><polygon class="cls-122" points="450.19 365.62 446.72 353.41 458.82 357.51 450.19 365.62"/><polygon class="cls-123" points="665.44 809.88 597.57 720.31 710.46 715.76 665.44 809.88"/><polygon class="cls-124" points="654.74 741.31 657.96 677.09 709.44 716.18 654.74 741.31"/><polygon class="cls-125" points="615.92 704.04 626.47 684.84 636.43 704.35 615.92 704.04"/><polygon class="cls-126" points="665.39 661.7 661.78 649.53 673.93 653.5 665.39 661.7"/><polygon class="cls-49" points="780.07 452.92 778.34 452.62 778.65 450.9 780.37 451.21 780.07 452.92"/><polygon class="cls-49" points="830.65 491.02 828.92 490.71 829.23 489 830.96 489.31 830.65 491.02"/><polygon class="cls-49" points="779.53 482.07 777.8 481.76 778.1 480.05 779.83 480.36 779.53 482.07"/><polygon class="cls-49" points="830.22 454.89 828.49 454.58 828.79 452.87 830.52 453.18 830.22 454.89"/><polygon class="cls-49" points="778.03 529.08 776.3 528.77 776.6 527.06 778.33 527.36 778.03 529.08"/><polygon class="cls-49" points="797.57 496.44 795.84 496.14 796.15 494.43 797.87 494.73 797.57 496.44"/><polygon class="cls-49" points="768.17 570.49 766.45 570.19 766.75 568.48 768.48 568.78 768.17 570.49"/><polygon class="cls-49" points="766.67 617.5 764.95 617.2 765.25 615.49 766.98 615.79 766.67 617.5"/><polygon class="cls-49" points="786.21 584.87 784.49 584.56 784.79 582.85 786.52 583.15 786.21 584.87"/><polygon class="cls-49" points="771.81 362.87 770.09 362.56 770.39 360.85 772.12 361.15 771.81 362.87"/><polygon class="cls-49" points="791.36 330.23 789.63 329.93 789.93 328.22 791.66 328.52 791.36 330.23"/><polygon class="cls-49" points="829.39 307.65 827.67 307.35 827.97 305.63 829.7 305.94 829.39 307.65"/><polygon class="cls-49" points="879.98 345.75 878.25 345.44 878.55 343.73 880.28 344.04 879.98 345.75"/><polygon class="cls-49" points="828.85 336.8 827.13 336.5 827.43 334.78 829.16 335.08 828.85 336.8"/><polygon class="cls-49" points="879.54 309.62 877.81 309.31 878.12 307.6 879.85 307.9 879.54 309.62"/><polygon class="cls-49" points="796.75 349.2 795.02 348.9 795.33 347.19 797.05 347.49 796.75 349.2"/><polygon class="cls-49" points="827.35 383.81 825.63 383.5 825.93 381.79 827.66 382.09 827.35 383.81"/><polygon class="cls-49" points="846.89 351.17 845.17 350.87 845.47 349.16 847.2 349.46 846.89 351.17"/><polygon class="cls-49" points="780 418.66 778.27 418.36 778.58 416.64 780.31 416.94 780 418.66"/><polygon class="cls-49" points="817.5 425.22 815.77 424.92 816.08 423.21 817.8 423.51 817.5 425.22"/><polygon class="cls-49" points="787.92 387.24 786.19 386.94 786.5 385.23 788.22 385.53 787.92 387.24"/><polygon class="cls-49" points="785.39 437.63 783.67 437.33 783.97 435.61 785.7 435.92 785.39 437.63"/><polygon class="cls-49" points="816 472.23 814.27 471.93 814.58 470.21 816.3 470.52 816 472.23"/><polygon class="cls-49" points="835.54 439.6 833.81 439.29 834.12 437.58 835.84 437.88 835.54 439.6"/><polygon class="cls-49" points="665.78 227.05 664.06 226.75 664.36 225.04 666.09 225.34 665.78 227.05"/><polygon class="cls-49" points="696.38 261.65 694.66 261.35 694.96 259.64 696.69 259.94 696.38 261.65"/><polygon class="cls-49" points="715.93 229.02 714.2 228.72 714.51 227.01 716.23 227.31 715.93 229.02"/><polygon class="cls-49" points="753.97 206.44 752.24 206.13 752.54 204.42 754.27 204.72 753.97 206.44"/><polygon class="cls-49" points="804.55 244.54 802.82 244.23 803.13 242.52 804.85 242.82 804.55 244.54"/><polygon class="cls-49" points="753.42 235.59 751.7 235.28 752 233.57 753.73 233.87 753.42 235.59"/><polygon class="cls-49" points="804.11 208.41 802.39 208.1 802.69 206.39 804.42 206.69 804.11 208.41"/><polygon class="cls-49" points="721.32 247.99 719.6 247.69 719.9 245.98 721.63 246.28 721.32 247.99"/><polygon class="cls-49" points="687.88 374.96 686.15 374.66 686.46 372.95 688.18 373.25 687.88 374.96"/><polygon class="cls-49" points="707.42 342.33 705.7 342.03 706 340.32 707.73 340.62 707.42 342.33"/><polygon class="cls-49" points="712.81 361.3 711.09 361 711.39 359.29 713.12 359.59 712.81 361.3"/><polygon class="cls-49" points="751.92 282.59 750.2 282.29 750.5 280.58 752.23 280.88 751.92 282.59"/><polygon class="cls-49" points="771.47 249.96 769.74 249.66 770.05 247.95 771.77 248.25 771.47 249.96"/><polygon class="cls-49" points="704.57 317.45 702.85 317.14 703.15 315.43 704.88 315.73 704.57 317.45"/><polygon class="cls-49" points="662.34 284.06 660.62 283.76 660.92 282.05 662.65 282.35 662.34 284.06"/><polygon class="cls-49" points="641.67 247.67 639.94 247.37 640.25 245.66 641.98 245.96 641.67 247.67"/><polygon class="cls-49" points="742.07 324.01 740.34 323.71 740.65 322 742.37 322.3 742.07 324.01"/><polygon class="cls-49" points="712.49 286.03 710.76 285.73 711.07 284.01 712.79 284.32 712.49 286.03"/><polygon class="cls-49" points="558.28 280.37 556.55 280.07 556.86 278.36 558.59 278.66 558.28 280.37"/><polygon class="cls-49" points="625.93 254.02 624.21 253.72 624.51 252.01 626.24 252.31 625.93 254.02"/><polygon class="cls-49" points="676.08 255.99 674.35 255.69 674.66 253.97 676.38 254.28 676.08 255.99"/><polygon class="cls-49" points="884.83 400.81 883.1 400.51 883.41 398.8 885.13 399.1 884.83 400.81"/><polygon class="cls-49" points="915.43 435.42 913.7 435.11 914.01 433.4 915.74 433.7 915.43 435.42"/><polygon class="cls-49" points="860.72 421.43 858.99 421.13 859.29 419.42 861.02 419.72 860.72 421.43"/><polygon class="cls-49" points="448.25 388.91 449.98 389.21 450.28 387.5 448.55 387.2 448.25 388.91"/><polygon class="cls-49" points="534.52 324.35 536.25 324.66 536.55 322.94 534.83 322.64 534.52 324.35"/><polygon class="cls-49" points="527.43 287.06 529.15 287.36 529.46 285.65 527.73 285.35 527.43 287.06"/><polygon class="cls-49" points="478.95 247.19 480.68 247.49 480.99 245.78 479.26 245.48 478.95 247.19"/><polygon class="cls-49" points="418.28 265.81 420 266.12 420.31 264.4 418.58 264.1 418.28 265.81"/><polygon class="cls-49" points="469.4 274.76 471.13 275.06 471.43 273.35 469.7 273.05 469.4 274.76"/><polygon class="cls-49" points="431.16 232.01 432.89 232.32 433.19 230.6 431.46 230.3 431.16 232.01"/><polygon class="cls-49" points="515.81 303.05 517.54 303.35 517.84 301.64 516.12 301.34 515.81 303.05"/><polygon class="cls-49" points="733.23 445.47 734.95 445.78 735.26 444.06 733.53 443.76 733.23 445.47"/><polygon class="cls-49" points="684.75 405.61 686.48 405.91 686.78 404.2 685.06 403.9 684.75 405.61"/><polygon class="cls-49" points="603.91 396.08 605.64 396.39 605.94 394.68 604.22 394.37 603.91 396.08"/><polygon class="cls-49" points="721.61 461.47 723.34 461.77 723.64 460.06 721.91 459.76 721.61 461.47"/><polygon class="cls-49" points="454.58 319.44 456.31 319.74 456.61 318.03 454.88 317.73 454.58 319.44"/><polygon class="cls-49" points="447.48 282.14 449.21 282.44 449.51 280.73 447.79 280.43 447.48 282.14"/><polygon class="cls-49" points="516.89 369.4 518.62 369.7 518.92 367.99 517.2 367.69 516.89 369.4"/><polygon class="cls-49" points="470.44 365.36 472.17 365.66 472.47 363.95 470.75 363.64 470.44 365.36"/><polygon class="cls-49" points="511.35 339.71 513.07 340.02 513.38 338.3 511.65 338 511.35 339.71"/><polygon class="cls-49" points="496.32 387.91 498.05 388.21 498.35 386.5 496.62 386.2 496.32 387.91"/><polygon class="cls-49" points="448.52 372.74 450.25 373.04 450.56 371.33 448.83 371.02 448.52 372.74"/><polygon class="cls-49" points="554.96 450.29 556.68 450.59 556.99 448.88 555.26 448.57 554.96 450.29"/><polygon class="cls-49" points="577.15 426.73 578.87 427.03 579.18 425.32 577.45 425.02 577.15 426.73"/><polygon class="cls-49" points="603.03 449.29 604.75 449.59 605.06 447.88 603.33 447.58 603.03 449.29"/><polygon class="cls-49" points="555.23 434.11 556.96 434.41 557.26 432.7 555.54 432.4 555.23 434.11"/><polygon class="cls-49" points="619.8 249.14 621.53 249.44 621.84 247.73 620.11 247.43 619.8 249.14"/><polygon class="cls-49" points="612.71 211.84 614.43 212.14 614.74 210.43 613.01 210.13 612.71 211.84"/><polygon class="cls-49" points="584.77 177.71 586.49 178.01 586.8 176.3 585.07 176 584.77 177.71"/><polygon class="cls-49" points="524.09 196.33 525.82 196.63 526.12 194.92 524.39 194.62 524.09 196.33"/><polygon class="cls-49" points="575.21 205.28 576.94 205.58 577.24 203.87 575.52 203.57 575.21 205.28"/><polygon class="cls-49" points="536.97 162.53 538.7 162.83 539 161.12 537.28 160.82 536.97 162.53"/><polygon class="cls-49" points="601.09 227.84 602.82 228.14 603.12 226.43 601.4 226.12 601.09 227.84"/><polygon class="cls-49" points="731.02 484.15 729.29 483.85 729.6 482.14 731.32 482.44 731.02 484.15"/><polygon class="cls-49" points="715.28 490.5 713.56 490.2 713.86 488.49 715.59 488.79 715.28 490.5"/><polygon class="cls-49" points="709.15 485.62 710.88 485.92 711.18 484.21 709.46 483.91 709.15 485.62"/><polygon class="cls-49" points="690.44 464.32 692.17 464.62 692.47 462.91 690.75 462.61 690.44 464.32"/><polygon class="cls-49" points="560.39 249.95 562.12 250.26 562.42 248.54 560.7 248.24 560.39 249.95"/><polygon class="cls-49" points="553.3 212.66 555.02 212.96 555.33 211.25 553.6 210.95 553.3 212.66"/><polygon class="cls-49" points="592.85 298.78 594.58 299.08 594.88 297.37 593.15 297.06 592.85 298.78"/><polygon class="cls-49" points="575.88 297.94 577.61 298.25 577.91 296.53 576.19 296.23 575.88 297.94"/><polygon class="cls-49" points="596.26 266.57 597.99 266.87 598.29 265.16 596.56 264.86 596.26 266.57"/><polygon class="cls-49" points="394.7 315.91 396.43 316.21 396.74 314.5 395.01 314.19 394.7 315.91"/><polygon class="cls-49" points="354 338.02 355.73 338.33 356.04 336.62 354.31 336.31 354 338.02"/><polygon class="cls-49" points="410.24 343.46 411.97 343.76 412.27 342.05 410.55 341.75 410.24 343.46"/><polygon class="cls-49" points="874.36 505.48 872.63 505.18 872.93 503.46 874.66 503.77 874.36 505.48"/><polygon class="cls-49" points="907.9 599.93 906.18 599.63 906.48 597.92 908.21 598.22 907.9 599.93"/><polygon class="cls-49" points="468.66 569.42 470.39 569.72 470.69 568.01 468.97 567.71 468.66 569.42"/><polygon class="cls-49" points="407.99 588.04 409.71 588.34 410.02 586.63 408.29 586.33 407.99 588.04"/><polygon class="cls-49" points="459.11 596.99 460.83 597.29 461.14 595.58 459.41 595.28 459.11 596.99"/><polygon class="cls-49" points="420.87 554.24 422.6 554.54 422.9 552.83 421.17 552.53 420.87 554.24"/><polygon class="cls-49" points="444.29 641.67 446.01 641.97 446.32 640.26 444.59 639.95 444.29 641.67"/><polygon class="cls-49" points="437.19 604.37 438.92 604.67 439.22 602.96 437.5 602.66 437.19 604.37"/><polygon class="cls-49" points="439.25 683.92 440.98 684.23 441.28 682.51 439.55 682.21 439.25 683.92"/><polygon class="cls-49" points="424.43 728.6 426.15 728.9 426.46 727.19 424.73 726.89 424.43 728.6"/><polygon class="cls-49" points="417.33 691.3 419.06 691.61 419.36 689.89 417.64 689.59 417.33 691.3"/><polygon class="cls-49" points="507.51 487.61 509.24 487.91 509.54 486.2 507.82 485.9 507.51 487.61"/><polygon class="cls-49" points="500.42 450.32 502.14 450.62 502.45 448.91 500.72 448.6 500.42 450.32"/><polygon class="cls-49" points="472.47 416.18 474.2 416.48 474.5 414.77 472.78 414.47 472.47 416.18"/><polygon class="cls-49" points="411.8 434.8 413.52 435.11 413.83 433.39 412.1 433.09 411.8 434.8"/><polygon class="cls-49" points="462.92 443.75 464.65 444.05 464.95 442.34 463.23 442.04 462.92 443.75"/><polygon class="cls-49" points="488.8 466.31 490.52 466.61 490.83 464.9 489.1 464.6 488.8 466.31"/><polygon class="cls-49" points="448.1 488.43 449.83 488.73 450.13 487.02 448.4 486.72 448.1 488.43"/><polygon class="cls-49" points="441 451.13 442.73 451.43 443.04 449.72 441.31 449.42 441 451.13"/><polygon class="cls-49" points="702.52 399.1 704.25 399.4 704.55 397.69 702.82 397.39 702.52 399.1"/><polygon class="cls-49" points="695.42 361.8 697.15 362.11 697.45 360.39 695.73 360.09 695.42 361.8"/><polygon class="cls-49" points="667.48 327.67 669.21 327.97 669.51 326.26 667.79 325.96 667.48 327.67"/><polygon class="cls-49" points="606.8 346.29 608.53 346.59 608.83 344.88 607.11 344.58 606.8 346.29"/><polygon class="cls-49" points="657.93 355.24 659.65 355.54 659.96 353.83 658.23 353.53 657.93 355.24"/><polygon class="cls-49" points="683.81 377.8 685.53 378.1 685.84 376.39 684.11 376.08 683.81 377.8"/><polygon class="cls-49" points="581.18 364.34 582.9 364.64 583.21 362.93 581.48 362.63 581.18 364.34"/><polygon class="cls-49" points="636.01 362.62 637.74 362.92 638.04 361.21 636.32 360.91 636.01 362.62"/><polygon class="cls-49" points="480.56 537.25 482.28 537.55 482.59 535.84 480.86 535.54 480.56 537.25"/><polygon class="cls-49" points="443.06 530.69 444.79 530.99 445.09 529.28 443.37 528.98 443.06 530.69"/><polygon class="cls-49" points="483.97 505.04 485.69 505.35 486 503.63 484.27 503.33 483.97 505.04"/><polygon class="cls-49" points="468.94 553.24 470.67 553.55 470.97 551.83 469.24 551.53 468.94 553.24"/><polygon class="cls-49" points="428.24 575.36 429.97 575.66 430.27 573.95 428.55 573.65 428.24 575.36"/><polygon class="cls-49" points="421.14 538.07 422.87 538.37 423.18 536.66 421.45 536.36 421.14 538.07"/><polygon class="cls-49" points="388.22 484.89 389.95 485.2 390.25 483.49 388.53 483.18 388.22 484.89"/><polygon class="cls-49" points="347.52 507.01 349.25 507.32 349.56 505.61 347.83 505.3 347.52 507.01"/><polygon class="cls-49" points="403.76 512.45 405.49 512.75 405.79 511.04 404.07 510.74 403.76 512.45"/><polygon class="cls-49" points="755.65 699.25 753.92 698.95 754.23 697.24 755.95 697.54 755.65 699.25"/><polygon class="cls-49" points="805.79 701.22 804.07 700.92 804.37 699.21 806.1 699.51 805.79 701.22"/><polygon class="cls-49" points="755.58 664.99 753.85 664.69 754.16 662.98 755.88 663.28 755.58 664.99"/><polygon class="cls-49" points="793.08 671.56 791.35 671.25 791.65 669.54 793.38 669.84 793.08 671.56"/><polygon class="cls-49" points="760.97 683.96 759.25 683.66 759.55 681.95 761.28 682.25 760.97 683.96"/><polygon class="cls-49" points="811.12 685.93 809.39 685.63 809.7 683.92 811.42 684.22 811.12 685.93"/><polygon class="cls-49" points="891.01 681.75 889.28 681.45 889.59 679.74 891.31 680.04 891.01 681.75"/><polygon class="cls-49" points="836.29 667.77 834.57 667.47 834.87 665.75 836.6 666.05 836.29 667.77"/><polygon class="cls-49" points="564.89 415.02 563.16 414.72 563.47 413.01 565.19 413.31 564.89 415.02"/><polygon class="cls-49" points="631.33 338.25 629.61 337.95 629.91 336.24 631.64 336.54 631.33 338.25"/><polygon class="cls-49" points="564.82 380.76 563.09 380.46 563.4 378.74 565.12 379.05 564.82 380.76"/><polygon class="cls-49" points="618.62 308.58 616.89 308.28 617.19 306.57 618.92 306.87 618.62 308.58"/><polygon class="cls-49" points="570.21 399.73 568.49 399.43 568.79 397.71 570.52 398.02 570.21 399.73"/><polygon class="cls-49" points="636.66 322.96 634.93 322.66 635.24 320.94 636.96 321.25 636.66 322.96"/><polygon class="cls-49" points="645.53 383.53 643.81 383.23 644.11 381.52 645.84 381.82 645.53 383.53"/><polygon class="cls-49" points="361.93 586.79 363.65 587.09 363.96 585.38 362.23 585.08 361.93 586.79"/><polygon class="cls-49" points="297.8 664.14 299.52 664.44 299.83 662.73 298.1 662.43 297.8 664.14"/><polygon class="cls-49" points="619.39 702.14 619.7 700.43 617.97 700.13 617.67 701.84 619.39 702.14"/><polygon class="cls-49" points="638.17 762.31 638.48 760.6 636.75 760.3 636.45 762.01 638.17 762.31"/><polygon class="cls-49" points="647.2 711.62 647.5 709.9 645.78 709.6 645.47 711.31 647.2 711.62"/><polygon class="cls-49" points="604.09 749.54 604.39 747.83 602.67 747.52 602.36 749.24 604.09 749.54"/><polygon class="cls-49" points="692.25 726.31 692.55 724.6 690.83 724.3 690.52 726.01 692.25 726.31"/><polygon class="cls-49" points="654.64 733.35 654.95 731.64 653.22 731.34 652.91 733.05 654.64 733.35"/><polygon class="cls-49" points="734.86 731.31 735.17 729.6 733.44 729.3 733.14 731.01 734.86 731.31"/><polygon class="cls-49" points="779.91 746.01 780.22 744.29 778.49 743.99 778.19 745.71 779.91 746.01"/><polygon class="cls-49" points="742.3 753.04 742.61 751.33 740.88 751.03 740.58 752.74 742.3 753.04"/><polygon class="cls-49" points="536.9 663.62 537.21 661.9 535.48 661.6 535.17 663.31 536.9 663.62"/><polygon class="cls-49" points="499.29 670.65 499.6 668.94 497.87 668.64 497.56 670.35 499.29 670.65"/><polygon class="cls-49" points="464.87 698.36 465.17 696.65 463.45 696.35 463.14 698.06 464.87 698.36"/><polygon class="cls-49" points="483.65 758.53 483.95 756.82 482.23 756.52 481.92 758.23 483.65 758.53"/><polygon class="cls-49" points="492.67 707.84 492.98 706.12 491.25 705.82 490.95 707.53 492.67 707.84"/><polygon class="cls-49" points="351.98 803.97 352.29 802.25 350.56 801.95 350.26 803.66 351.98 803.97"/><polygon class="cls-49" points="515.42 682.17 515.72 680.46 514 680.16 513.69 681.87 515.42 682.17"/><polygon class="cls-49" points="537.72 722.53 538.03 720.82 536.3 720.52 536 722.23 537.72 722.53"/><polygon class="cls-49" points="426.06 893.21 426.37 891.5 424.64 891.2 424.34 892.91 426.06 893.21"/><polygon class="cls-49" points="500.12 729.57 500.42 727.86 498.69 727.56 498.39 729.27 500.12 729.57"/><polygon class="cls-49" points="586.96 690.35 587.26 688.64 585.53 688.33 585.23 690.05 586.96 690.35"/><polygon class="cls-49" points="580.34 727.53 580.64 725.82 578.92 725.52 578.61 727.23 580.34 727.53"/><polygon class="cls-49" points="554.48 686.97 554.78 685.25 553.06 684.95 552.75 686.66 554.48 686.97"/><polygon class="cls-49" points="603.08 701.87 603.39 700.16 601.66 699.85 601.36 701.57 603.08 701.87"/><polygon class="cls-49" points="625.39 742.23 625.69 740.52 623.97 740.21 623.66 741.92 625.39 742.23"/><polygon class="cls-49" points="587.78 749.26 588.09 747.55 586.36 747.25 586.05 748.96 587.78 749.26"/><polygon class="cls-49" points="534.16 781.91 534.47 780.2 532.74 779.9 532.43 781.61 534.16 781.91"/><polygon class="cls-49" points="556.47 822.27 556.77 820.56 555.04 820.26 554.74 821.97 556.47 822.27"/><polygon class="cls-49" points="561.95 766.5 562.25 764.79 560.53 764.49 560.22 766.2 561.95 766.5"/><polygon class="cls-49" points="636.91 807.99 637.22 806.28 635.49 805.97 635.18 807.69 636.91 807.99"/><polygon class="cls-49" points="714.91 871.59 715.22 869.87 713.49 869.57 713.19 871.28 714.91 871.59"/><ellipse class="cls-127" cx="443.2" cy="565.03" rx="6.35" ry="6.3"/><path class="cls-128" d="M606.2,556a6.35,6.35,0,1,1-5.15-7.29A6.35,6.35,0,0,1,606.2,556Z" transform="translate(-144.42)"/></g><text class="cls-129" transform="translate(262.88 46.85) scale(0.96 1)">Ind<tspan class="cls-130" x="36.55" y="0">o</tspan><tspan x="51.13" y="0">n</tspan><tspan class="cls-131" x="65.75" y="0">e</tspan><tspan x="79.01" y="0">sian Journal </tspan><tspan class="cls-132" x="0" y="26.55">o</tspan><tspan x="14.51" y="26.55">f Digi</tspan><tspan class="cls-130" x="73.65" y="26.55">t</tspan><tspan x="82.35" y="26.55">al Inn</tspan><tspan class="cls-132" x="146.13" y="26.55">o</tspan><tspan class="cls-133" x="160.64" y="26.55">va</tspan><tspan x="189.38" y="26.55">ti</tspan><tspan class="cls-130" x="204.8" y="26.55">o</tspan><tspan x="219.38" y="26.55">n </tspan><tspan x="0" y="53.1">Studi</tspan><tspan class="cls-131" x="59.91" y="53.1">e</tspan><tspan class="cls-134" x="73.16" y="53.1">s</tspan></text><text class="cls-135" transform="translate(668.8 52.84) scale(0.96 1)">2022</text><text class="cls-136" transform="translate(651.97 68.48) scale(0.96 1)"><tspan class="cls-137">IS</tspan><tspan x="8.77" y="0">SN XXXX</tspan><tspan class="cls-138" x="55.09" y="0">-</tspan><tspan class="cls-139" x="58.37" y="0">YYYY</tspan></text><text class="cls-140" transform="translate(665.44 141.48) scale(0.96 1)"><tspan class="cls-141">V</tspan><tspan class="cls-142" x="8.45" y="0">o</tspan><tspan x="16.24" y="0">lume 1.0</tspan></text><rect class="cls-143" x="107.89" y="142.17" width="80.68" height="50.99"/><rect class="cls-144" x="107.03" y="223.28" width="80.68" height="50.99"/><rect class="cls-145" x="107.03" y="296.81" width="80.68" height="50.99"/><rect class="cls-146" x="107.03" y="370.34" width="80.68" height="50.99"/><rect class="cls-147" x="107.03" y="443.88" width="80.68" height="50.99"/><text class="cls-148" transform="translate(0 174.51) scale(1.06 1)">#EEEDED</text><text class="cls-148" transform="translate(5.41 257.31) scale(0.97 1)">#439334</text><text class="cls-148" transform="translate(4.6 331.83)">#0A2432</text><text class="cls-148" transform="translate(7.87 402.54)">#023642</text><text class="cls-148" transform="translate(7.06 477.08)">#0C7236</text><rect x="107.89" y="70.21" width="80.68" height="50.99"/><text class="cls-148" transform="translate(0.86 106) scale(1.06 1)">#000000</text></g></g></g></svg>